<svg width="178" height="115" viewBox="0 0 178 115" fill="none" xmlns="http://www.w3.org/2000/svg">
<path d="M169.195 1.00568L143.844 51.7987H148.827L156.531 36.2545H165.171L161.765 51.7987H166.589L177.31 1.00568H169.195ZM166.177 31.5912H158.657L171.366 5.48607H172.029L166.177 31.5912Z" fill="#231F20"/>
<path d="M125.602 0.294786C123.829 0.11885 122.039 0.348479 120.368 0.966284C118.697 1.58409 117.188 2.57388 115.955 3.86081C114.58 5.64084 113.654 7.72685 113.258 9.94135L105.943 37.4867C105.099 40.232 104.503 43.0472 104.16 45.8988C104.16 50.4706 107.543 52.3451 113.098 52.3451C118.653 52.3451 122.745 50.7449 124.711 43.75L132.94 14.4217C133.63 12.1875 134.097 9.89037 134.334 7.564C134.54 5.4381 134.334 0.249075 125.602 0.249075V0.294786ZM129.351 8.82126C129.008 10.6271 128.825 11.4958 128.094 14.1932L120.779 41.0298C119.339 46.5846 117.738 47.8876 113.784 47.8876C110.401 47.8876 109.212 46.8132 109.212 44.8244C109.447 42.6302 109.922 40.4684 110.629 38.3782L117.076 14.2389C117.545 12.0186 118.258 9.85678 119.202 7.79259C119.795 6.73572 120.691 5.88106 121.775 5.33907C122.859 4.79708 124.081 4.59269 125.282 4.75232C129.054 4.75232 129.854 6.71821 129.397 8.86697" fill="#231F20"/>
<path d="M98.6052 0.99959H90.2387L76.2717 51.8155H80.8436L86.1012 32.6595H92.0217C98.2623 32.6595 100.594 30.3736 102.194 24.9789L104.869 16.0181C105.821 13.3639 106.428 10.598 106.674 7.78876C106.674 3.49124 104 0.931015 98.6052 0.931015V0.99959ZM100.754 13.4578L97.8965 23.4701C96.6621 27.5848 94.8791 28.2934 91.4731 28.2934H87.4499L93.7819 5.22855H97.4393C100.845 5.22855 102.011 6.64581 102.011 8.61169C101.879 10.2712 101.509 11.9032 100.914 13.4578" fill="#231F20"/>
<path d="M161.857 1.00568L159.548 5.64608H148.964L136.14 51.7987H131.317L145.444 1.00568H161.857Z" fill="#231F20"/>
<path d="M51.264 1.00568H43.4004L15.375 47.7298H12.3119L8.56299 59.1594L13.3863 57.5593L15.1693 51.8445H39.4457L41.7317 47.7298H36.7484L51.264 1.00568ZM45.252 5.57751H45.6863L31.8337 47.7298H20.5412L45.252 5.57751Z" fill="#231F20"/>
<path d="M69.8486 0.29578C68.0754 0.118132 66.285 0.346948 64.6135 0.964854C62.942 1.58276 61.4333 2.5735 60.202 3.8618C58.8985 5.68126 57.9877 7.75197 57.5275 9.94235L50.1897 37.4877C49.3459 40.233 48.7492 43.0482 48.4067 45.8998C48.4067 50.4716 51.7898 52.3461 57.3446 52.3461C62.8994 52.3461 66.9912 50.7459 68.9571 43.751L77.1864 14.4227C77.85 12.1805 78.3241 9.88656 78.6037 7.56499C78.7865 5.43909 78.6036 0.250069 69.8486 0.250069V0.29578ZM73.5975 8.82226C73.2318 10.6281 73.0718 11.4968 72.3403 14.1942L65.0253 41.0308C63.6081 46.5856 61.9851 47.8886 58.0533 47.8886C54.6473 47.8886 53.4815 46.8142 53.4815 44.8254C53.7155 42.629 54.1986 40.4664 54.9215 38.3792L61.3678 14.2399C61.8353 12.016 62.5562 9.85312 63.5166 7.79358C64.1011 6.73426 64.9927 5.8768 66.074 5.3341C67.1553 4.7914 68.3756 4.58891 69.5743 4.75331C73.3232 4.75331 74.1461 6.7192 73.689 8.86797" fill="#231F20"/>
<path d="M50.7156 62.9057C48.943 62.7365 47.1551 62.9693 45.4849 63.5867C43.8148 64.2041 42.3053 65.1902 41.069 66.4717C39.7015 68.254 38.7841 70.3398 38.3945 72.5523L31.0796 100.12C30.218 102.855 29.6134 105.663 29.2737 108.51C29.2737 113.082 32.6797 114.956 38.2116 114.956C43.7435 114.956 47.8582 113.356 49.8469 106.361L58.0534 77.0327C58.7244 74.791 59.2061 72.4971 59.4935 70.1749C59.6535 68.0262 59.4935 62.8371 50.7156 62.8371V62.9057ZM54.4873 71.4093C54.1216 73.2152 53.9387 74.1067 53.2301 76.7812L45.9151 103.618C44.475 109.173 42.8749 110.476 38.9431 110.476C35.5371 110.476 34.3713 109.401 34.3713 107.412C34.6061 105.224 35.0892 103.069 35.8114 100.989L42.2349 76.8269C42.7154 74.6066 43.4359 72.4452 44.3836 70.3806C44.9776 69.3259 45.875 68.4741 46.9594 67.936C48.0438 67.3978 49.2649 67.1983 50.4642 67.3632C54.2131 67.3632 55.036 69.3063 54.5788 71.455" fill="#231F20"/>
<path d="M105.441 63.6116H96.3429L93.6455 67.9092H99.6346L88.1593 110.313H83.4732L82.3988 114.428H96.3429L98.4688 110.313H92.7997L105.441 63.6116Z" fill="#231F20"/>
<path d="M1.5685 109.446L0.151245 114.475H21.1588L22.759 110.177H7.03187L21.1588 93.9013C24.488 90.3843 26.9875 86.1665 28.4738 81.5574C29.6338 77.954 30.3552 74.2239 30.6225 70.4478C30.6225 66.8818 28.8395 62.95 21.4789 62.95C19.7598 62.7909 18.0272 63.0321 16.4171 63.6548C14.8069 64.2775 13.3628 65.2646 12.198 66.5389C10.1985 69.2986 9.0755 72.5961 8.97492 76.0026H13.981C14.0739 73.6667 14.7413 71.3898 15.9241 69.3734C16.524 68.6924 17.2742 68.1602 18.1153 67.819C18.9564 67.4778 19.8653 67.3369 20.7702 67.4075C24.5191 67.4075 25.342 69.5563 25.342 71.7051C25.1399 74.8165 24.5407 77.8893 23.559 80.8487C22.3003 84.1528 20.4228 87.1863 18.0271 89.7866L1.5685 109.446Z" fill="#231F20"/>
<path d="M56.3393 109.446L54.8992 114.475H76.021L77.6212 110.177H61.8941L76.021 93.9013C79.3577 90.39 81.8583 86.1703 83.336 81.5574C84.4844 77.951 85.2056 74.2223 85.4847 70.4478C85.4847 66.8818 83.6789 62.95 76.3411 62.95C74.622 62.7909 72.8894 63.0321 71.2792 63.6548C69.669 64.2775 68.225 65.2646 67.0602 66.5389C65.0607 69.2986 63.9377 72.5961 63.8371 76.0026H68.8432C68.9296 73.6625 69.6058 71.3823 70.8091 69.3734C71.4033 68.6914 72.1492 68.1582 72.9869 67.8168C73.8246 67.4753 74.7307 67.3352 75.6324 67.4075C79.3813 67.4075 80.2042 69.5563 80.2042 71.7051C80.002 74.8165 79.4029 77.8893 78.4212 80.8487C77.1624 84.1528 75.285 87.1863 72.8893 89.7866L56.3393 109.446Z" fill="#231F20"/>
</svg>
