<svg width="85" height="79" viewBox="0 0 85 79" fill="none" xmlns="http://www.w3.org/2000/svg">


<style>
  * {
      cursor: pointer;
  }
</style>

<path d="M73.6303 43.5797C73.5342 44.1026 73.4634 44.6317 73.3367 45.1469C72.933 46.7859 72.181 48.2617 71.1971 49.6233C71.1097 49.7444 70.9846 49.8384 70.877 49.9451L70.7908 49.8857C70.8275 49.7719 70.8583 49.656 70.9009 49.5445C71.5347 47.8882 71.9021 46.1963 71.7718 44.4009C71.7311 43.838 71.9267 43.2579 72.0137 42.6907L71.6492 42.9504C71.4584 42.4078 71.2734 41.8897 71.0987 41.369C71.0917 41.3386 71.091 41.3072 71.0968 41.2765C71.1025 41.2459 71.1145 41.2168 71.1321 41.191C71.6742 40.4539 72.2063 39.7039 73.1918 39.3392C73.3155 40.1097 73.4347 40.8568 73.5551 41.6035C73.579 41.7524 73.6058 41.901 73.6314 42.0496L73.6303 43.5797Z" fill="#BCBEC0"/>
<path d="M42.8184 19.1216C52.7519 19.1286 61.0588 25.9717 62.9346 35.3569C64.8339 44.8676 60.0528 54.2242 51.2637 58.1429C48.0098 59.5941 44.5944 60.1203 41.0484 59.7207C32.2288 58.7282 25.1499 52.2453 23.4246 43.485C21.2478 32.4362 28.2346 22.0001 38.8283 19.6048C40.2758 19.2779 41.7416 19.1289 42.8184 19.1216ZM25.8824 39.4969C25.889 41.515 26.1962 43.3632 26.8367 45.2305C29.7599 53.76 38.7957 58.69 47.398 56.4485C57.039 53.9365 62.6377 43.9782 59.775 34.433C57.1861 25.8029 48.5526 20.5845 39.7686 22.3421C31.7245 23.951 25.8553 31.2022 25.8824 39.4969ZM57.1076 52.6915C57.3261 52.6897 57.5351 52.6019 57.6895 52.4472C57.8438 52.2925 57.931 52.0833 57.9323 51.8648C57.937 51.408 57.533 51.0029 57.0815 51.0114C56.863 51.0177 56.6556 51.1091 56.5036 51.2662C56.3516 51.4232 56.267 51.6335 56.2679 51.852C56.2657 52.3371 56.6261 52.6974 57.1076 52.6904V52.6915ZM43.1036 59.1149C43.2149 59.1183 43.3258 59.0993 43.4296 59.0589C43.5334 59.0185 43.628 58.9577 43.7077 58.88C43.7875 58.8023 43.8508 58.7094 43.8939 58.6067C43.9369 58.504 43.9589 58.3937 43.9584 58.2824C43.9584 57.8358 43.5848 57.4469 43.1429 57.4348C42.6911 57.4219 42.2863 57.8226 42.2866 58.2816C42.2864 58.4998 42.3719 58.7094 42.5247 58.8653C42.6775 59.0211 42.8854 59.1108 43.1036 59.1149ZM43.5492 19.5755C43.3277 19.5736 43.1145 19.6592 42.9559 19.8137C42.7972 19.9681 42.7059 20.1789 42.7019 20.4003C42.6978 20.6216 42.7813 20.8357 42.9342 20.9958C43.087 21.156 43.297 21.2493 43.5183 21.2556C43.7366 21.259 43.9473 21.176 44.1047 21.0249C44.2621 20.8737 44.3534 20.6665 44.3588 20.4484C44.3746 19.9673 44.0193 19.5839 43.5492 19.5755ZM55.2758 25.7372C55.2754 25.9558 55.3615 26.1656 55.5153 26.3208C55.6692 26.476 55.8783 26.5639 56.0968 26.5654C56.5596 26.5705 56.9534 26.1775 56.9461 25.7174C56.9391 25.2723 56.5582 24.8922 56.1145 24.8878C56.0032 24.8869 55.8928 24.9084 55.79 24.9509C55.6871 24.9935 55.5938 25.0562 55.5156 25.1354C55.4374 25.2146 55.3759 25.3086 55.3348 25.412C55.2936 25.5154 55.2735 25.626 55.2758 25.7372ZM30.1519 26.5467C30.1486 26.077 29.7544 25.6862 29.3004 25.7027C28.8563 25.7185 28.4992 26.0987 28.4999 26.5551C28.4999 27.0394 28.8636 27.3954 29.3474 27.3844C29.8098 27.3726 30.1552 27.0145 30.1519 26.5467ZM25.1624 40.233C25.1672 40.0148 25.0862 39.8034 24.9368 39.6443C24.7874 39.4852 24.5815 39.391 24.3634 39.3821C23.9035 39.367 23.5079 39.7527 23.5038 40.2194C23.4993 40.4382 23.5818 40.65 23.7331 40.8082C23.8845 40.9664 24.0924 41.0581 24.3113 41.0633C24.7924 41.0729 25.1587 40.7166 25.1624 40.2322V40.233ZM30.6657 52.9825C30.6829 52.5015 30.3254 52.1129 29.8582 52.1044C29.6396 52.1018 29.4285 52.1841 29.2693 52.334C29.1102 52.4839 29.0154 52.6897 29.0049 52.908C28.9785 53.3652 29.3576 53.7721 29.8223 53.785C30.0405 53.7898 30.2518 53.708 30.4099 53.5575C30.5679 53.4069 30.6599 53.1999 30.6657 52.9818V52.9825ZM62.5606 38.8372C62.5606 38.358 62.1885 37.9885 61.7165 37.9984C61.498 38.0032 61.2904 38.0944 61.1391 38.2519C60.9877 38.4095 60.905 38.6206 60.9091 38.839C60.9091 39.301 61.2651 39.6701 61.7165 39.6796C62.1863 39.6892 62.561 39.3149 62.5606 38.8364V38.8372Z" fill="#BCBEC0"/>
<path d="M53.2632 17.2049C54.7701 17.2625 56.2018 17.6606 57.6089 18.1508C58.4248 18.4348 59.2238 18.7673 60.0264 19.0876C60.1494 19.1364 60.2903 19.2149 60.3567 19.321C61.4945 21.1618 62.6113 23.0214 63.1754 25.1327C63.3489 25.7818 63.4022 26.4903 63.3644 27.1614C63.3159 28.0189 62.6564 28.4647 61.9697 28.2343C61.6108 28.1139 61.4009 27.8674 61.3183 27.503C61.2375 27.15 61.3836 26.8957 61.6486 26.6701C62.2655 26.1461 62.2945 25.9616 61.9055 25.2369C61.5491 24.5731 60.988 24.1247 60.3395 23.771C59.4587 23.2896 58.5011 23.032 57.5183 22.8754C57.2893 22.8387 57.1997 22.7546 57.1326 22.5492C56.8162 21.5768 56.4029 20.6496 55.7662 19.8387C55.2608 19.1951 54.6651 18.6748 53.8372 18.4866C53.2734 18.3589 53.1296 18.4132 52.836 18.9096C52.6594 19.2076 52.5002 19.5158 52.0781 19.5147C51.6311 19.5147 51.2883 19.2945 51.1283 18.8843C50.9624 18.4583 51.0574 18.0253 51.3969 17.741C51.939 17.2864 52.5982 17.2309 53.2632 17.2049ZM56.8492 18.8102C56.6198 18.8102 56.389 18.794 56.1622 18.8183C56.0704 18.8282 55.935 18.91 55.9104 18.9882C55.7636 19.4534 56.1339 19.8688 56.6011 19.7844C56.6507 19.7748 56.6997 19.7626 56.7479 19.7477C57.0001 19.6717 57.1355 19.7477 57.225 20.0144C57.4059 20.557 57.6182 21.0886 57.8607 21.6065C57.9447 21.7823 58.1587 21.9489 58.3488 22.0101C58.7698 22.147 59.2142 22.2116 59.648 22.3107C60.3776 22.4772 60.3274 22.3041 60.3086 23.1234C60.3017 23.4037 60.4066 23.5248 60.6757 23.5248C60.8159 23.5248 60.9729 23.5725 61.0907 23.5248C61.1953 23.4808 61.3256 23.33 61.3223 23.2313C61.3143 22.9803 61.1946 22.7319 61.195 22.4827C61.195 21.7074 60.8041 21.3284 60.0598 21.2532C59.1309 21.1596 58.5393 20.6731 58.3088 19.755C58.1205 18.9889 57.6504 18.6396 56.8492 18.8102Z" fill="#BCBEC0"/>
<path d="M33.0962 17.4017C33.9176 17.4163 34.6432 17.4545 35.2355 17.9675C35.5746 18.261 35.633 18.6367 35.5045 19.044C35.3779 19.4451 35.096 19.6762 34.6729 19.7276C34.3495 19.7672 34.0981 19.6561 33.9282 19.3754C33.8427 19.2341 33.7653 19.0881 33.6823 18.945C33.5238 18.6723 33.297 18.5689 32.9773 18.6173C32.139 18.7439 31.4935 19.1886 30.9503 19.8091C30.2266 20.6365 29.7608 21.607 29.3916 22.6311C29.3182 22.8311 29.2408 22.9224 29.0055 22.9562C27.8542 23.1206 26.7334 23.3965 25.7333 24.0294C25.2195 24.3542 24.7893 24.7633 24.5089 25.3137C24.1805 25.9565 24.2102 26.1414 24.7526 26.6291C25.0371 26.8859 25.2206 27.1586 25.0789 27.5644C24.9321 27.9838 24.6385 28.2061 24.2094 28.2615C23.8057 28.3122 23.431 28.11 23.2372 27.7284C22.8922 27.05 22.9745 26.3429 23.1308 25.6399C23.409 24.3865 23.9485 23.2343 24.5673 22.1218C25.0738 21.2111 25.6294 20.3272 26.177 19.4399C26.2637 19.3034 26.3897 19.1962 26.5385 19.1325C28.3735 18.4129 30.2288 17.7503 32.1967 17.4813C32.5237 17.434 32.8555 17.4215 33.0962 17.4017ZM29.7355 18.9083V18.9123C29.5575 18.9123 29.378 18.9255 29.2011 18.9094C28.8639 18.8778 28.6594 19.0172 28.5137 19.3244C28.2532 19.8747 28.0807 20.5565 27.6469 20.9021C27.2131 21.2478 26.4959 21.2349 25.9179 21.4239C25.7439 21.4808 25.5413 21.6635 25.4874 21.8323C25.3439 22.2774 25.2617 22.7441 25.1872 23.2072C25.1714 23.3051 25.2683 23.4923 25.3545 23.5234C25.8925 23.7172 26.2071 23.4868 26.2122 22.9294C26.2155 22.8787 26.2155 22.8278 26.2122 22.7771C26.1825 22.5456 26.2687 22.4381 26.5135 22.4003C27.053 22.317 27.5852 22.1886 28.124 22.102C28.4502 22.0495 28.6378 21.8862 28.753 21.5776C28.9244 21.1135 29.1498 20.6688 29.3123 20.2017C29.4254 19.8766 29.5762 19.7438 29.9249 19.8678C30.0845 19.9243 30.3947 19.9687 30.4222 19.9129C30.5514 19.6517 30.6189 19.3559 30.6655 19.0657C30.6699 19.0367 30.3866 18.9395 30.2302 18.9134C30.0739 18.8874 29.901 18.9083 29.7355 18.9083Z" fill="#BCBEC0"/>
<path d="M33.0989 59.4192C34.5901 59.4995 36.0409 59.578 37.4021 60.1328C38.5249 60.5899 39.5641 61.2298 40.4777 62.0265C41.135 62.5982 41.6047 63.3005 41.9604 64.0861C41.9995 64.1796 42.0309 64.2762 42.0543 64.3748C42.0631 64.4082 42.0492 64.4482 42.0411 64.537L36.2181 61.3785C36.2031 61.4024 36.1877 61.4259 36.1723 61.4497L41.3471 65.6815L41.3031 65.8033C40.6391 65.6723 39.9697 65.5641 39.3128 65.4055C38.0862 65.1091 36.9918 64.537 36.1301 63.6113C35.2492 62.6631 34.4158 61.6666 33.586 60.6704C33.291 60.3178 33.1199 59.8783 33.0989 59.4192Z" fill="#BCBEC0"/>
<path d="M53.3088 59.4049C52.8104 61.044 51.647 62.0941 50.6179 63.2338C49.1234 64.889 47.1926 65.5821 44.9836 65.6892L50.2347 61.394L50.1947 61.3368L44.2092 64.5855C44.3145 64.3011 44.3721 64.1129 44.4521 63.935C44.9527 62.8184 45.7917 62.0064 46.7753 61.3096C48.4246 60.141 50.2619 59.5609 52.2694 59.475C52.5707 59.4636 52.8739 59.4361 53.3088 59.4049Z" fill="#BCBEC0"/>
<path d="M66.0885 34.4274C66.6988 36.2044 67.2996 37.9844 67.9265 39.7563C68.0366 40.067 68.0366 40.314 67.7841 40.5635C67.1268 40.1434 66.5693 39.6154 66.1575 38.949C64.9764 37.0351 64.3591 34.9745 64.5603 32.7054C64.6065 32.187 64.6498 31.6682 64.7049 31.0246C65.0752 31.2543 65.4198 31.3981 65.6745 31.6377C66.97 32.8577 68.0879 34.223 68.9104 35.8115C69.3321 36.626 69.4815 37.5121 69.553 38.3381L68.6781 38.8345L66.1457 34.3874L66.0885 34.4274Z" fill="#BCBEC0"/>
<path d="M20.1958 34.394L17.6535 38.8573L16.824 38.337C16.5796 36.4246 19.7917 31.4971 21.5952 31.1386C22.4162 34.9312 20.9096 39.1196 18.549 40.5594C18.3288 40.3279 18.2976 40.0905 18.4092 39.7753C18.9986 38.1109 19.5641 36.4385 20.1378 34.769C20.1778 34.6523 20.2148 34.5349 20.2534 34.4178L20.1958 34.394Z" fill="#BCBEC0"/>
<path d="M18.8378 48.0525L17.6865 47.7428C17.2318 45.7332 19.1736 40.6325 20.8391 39.6837C20.8802 39.7702 20.9279 39.8528 20.9602 39.9405C21.4007 41.1514 21.8264 42.3739 21.8745 43.667C21.9071 44.5498 21.7757 45.4389 21.7045 46.3243C21.6987 46.3977 21.6018 46.5136 21.5335 46.5242C21.2014 46.576 21.0307 46.8178 20.9724 47.0853C20.8512 47.6386 20.7925 48.2059 20.7125 48.768C20.6887 48.9357 20.6787 49.1056 20.6545 49.3587C20.3429 49.1386 20.0952 48.9918 19.8798 48.8021C19.8064 48.7386 19.7825 48.5776 19.7924 48.4664C19.9326 46.9334 20.0827 45.4011 20.2295 43.8684C20.2449 43.7074 20.2519 43.5455 20.1965 43.3709C19.7414 44.9388 19.2867 46.5059 18.8378 48.0525Z" fill="#BCBEC0"/>
<path d="M66.0655 43.3337C66.2037 44.7637 66.3422 46.1936 66.4809 47.6234C66.4846 47.6997 66.4947 47.7756 66.511 47.8502C66.7034 48.5444 66.4784 49.0265 65.7117 49.2742C65.6886 49.1465 65.6581 49.0005 65.6357 48.8533C65.5454 48.2545 65.4966 47.6458 65.348 47.062C65.2951 46.854 64.9982 46.7112 64.8213 46.5303C64.7417 46.4489 64.6415 46.3561 64.6206 46.2537C64.1497 43.9703 64.6305 41.8106 65.5168 39.6123C65.7873 39.8736 66.0831 40.0714 66.2611 40.3462C67.4029 42.1074 68.3655 43.9534 68.6731 46.061C68.7579 46.6434 68.6859 47.2484 68.6859 47.7456L67.5064 48.049C67.056 46.4988 66.5929 44.9049 66.1301 43.3109L66.0655 43.3337Z" fill="#BCBEC0"/>
<path d="M64.7922 47.0663C65.299 48.115 65.117 49.1945 65.0461 50.2409C64.8993 52.4351 64.5426 54.575 62.9285 56.3084C62.7391 56.1004 62.5218 55.9048 62.3614 55.667C62.2932 55.5665 62.3134 55.3775 62.3464 55.2418C62.6954 53.8107 63.0555 52.3797 63.4107 50.9487C63.4406 50.8572 63.4361 50.758 63.3982 50.6695L61.5632 54.7703C61.4777 54.6928 61.401 54.655 61.3756 54.5956C61.2241 54.2389 61.0013 53.966 60.6508 53.7708C60.5521 53.7153 60.5066 53.4328 60.5455 53.2824C61.2054 50.7297 62.7002 48.7369 64.7922 47.0663Z" fill="#BCBEC0"/>
<path d="M24.7395 54.6893C24.1156 53.2928 23.5206 51.9601 22.9257 50.6271L22.8685 50.6392C22.8971 50.7859 22.9195 50.9327 22.9554 51.0769C23.2762 52.3582 23.5819 53.6454 23.931 54.9172C24.0473 55.3424 24.0267 55.6745 23.6759 55.9629C23.5709 56.0491 23.4924 56.1673 23.4014 56.2704C21.7131 54.748 20.5042 48.6266 21.6056 47.0708C21.9502 47.3926 22.2879 47.7141 22.6332 48.0281C24.149 49.4092 25.1513 51.107 25.7528 53.055C25.8225 53.2807 25.8229 53.4491 25.6427 53.6355C25.3359 53.9565 25.0632 54.3077 24.7395 54.6893Z" fill="#BCBEC0"/>
<path d="M57.0319 14.2394L49.4943 13.3988C49.4829 13.4425 49.4719 13.4858 49.4605 13.5291L51.1216 14.198C50.5208 14.3227 49.9809 14.3598 49.5027 14.5506C48.6825 14.8782 48.0424 14.6574 47.4236 14.1136C46.912 13.6641 46.3685 13.2513 45.7812 12.7758C48.4604 11.3517 51.1297 11.1088 53.8841 12.1663C55.071 12.6217 56.1823 13.2172 57.0928 14.111C57.0726 14.1547 57.0521 14.1969 57.0319 14.2394Z" fill="#BCBEC0"/>
<path d="M29.2968 14.2413C29.3951 13.7852 30.6958 12.9013 32.1422 12.2948C34.9795 11.1056 37.7471 11.2957 40.4792 12.7307C40.4377 12.8011 40.4201 12.8657 40.3775 12.8987C39.6251 13.4858 38.8728 14.07 38.1112 14.6449C38.0184 14.7154 37.869 14.7778 37.764 14.755C36.9445 14.5837 36.1294 14.3903 35.2471 14.1889L36.9041 13.5266C36.8979 13.4847 36.8916 13.4429 36.885 13.4011C34.3598 13.6809 31.8303 13.961 29.2968 14.2413Z" fill="#BCBEC0"/>
<path d="M31.3942 16.0741L31.6555 14.9763C33.6806 14.1878 35.7458 14.729 37.801 15.3748C39.4405 15.8885 40.1004 16.2503 40.4692 16.8205C38.9828 17.6512 37.4964 18.4511 35.7755 18.6778C35.5113 17.7972 34.9222 17.3749 33.9038 17.2769C32.8762 17.1778 31.8742 17.3334 30.8771 17.5532C30.7431 17.5829 30.6084 17.609 30.4366 17.6442C30.5438 17.3426 30.6822 17.2039 31.0084 17.1855C32.9268 17.0755 34.8433 16.9357 36.7679 16.7474L31.3942 16.0741Z" fill="#BCBEC0"/>
<path d="M69.6997 50.0383C69.5715 47.5677 69.4435 45.0962 69.3158 42.6239L69.2057 42.6188L68.8196 44.3723C68.4827 43.5357 68.1711 42.7681 67.8676 41.9972C67.8458 41.9261 67.8511 41.8495 67.8826 41.7822C68.3307 40.8597 68.7847 39.9402 69.2828 38.9275C69.4512 39.1388 69.5397 39.2375 69.6131 39.3458C71.7127 42.3781 71.9105 45.5923 70.5258 48.9548C70.4187 49.2272 70.2945 49.4925 70.154 49.7492C70.0755 49.8872 69.9338 49.9888 69.8201 50.107L69.6997 50.0383Z" fill="#BCBEC0"/>
<path d="M17.5317 44.4046L17.1544 42.6856H17.026C16.8971 45.1348 16.7691 47.5837 16.6344 50.1342C16.4637 50.0054 16.2831 49.9382 16.2204 49.812C14.436 46.2161 14.4062 42.7017 16.7525 39.3117C16.816 39.22 16.8902 39.1349 17.0208 38.969C17.3996 39.657 17.735 40.305 18.1079 40.931C18.4749 41.5452 18.5351 42.1213 18.167 42.7766C17.8987 43.2565 17.7581 43.8102 17.5317 44.4046Z" fill="#BCBEC0"/>
<path d="M54.6702 14.9702C54.7773 15.3874 54.8588 15.7041 54.9531 16.071L49.5515 16.7476L49.5552 16.8052L52.5811 17.0056C51.755 17.2921 50.8617 17.4943 50.8808 18.6883C49.0032 18.5661 47.4518 17.6752 45.8348 16.8074C46.4884 16.0002 47.4019 15.765 48.2655 15.4674C51.1663 14.4664 53.1551 14.3395 54.6702 14.9702Z" fill="#BCBEC0"/>
<path d="M31.0762 62.5777C32.1061 62.5102 33.079 62.4442 34.0527 62.3873C34.1398 62.3847 34.2246 62.4157 34.2894 62.4739C34.8443 63.0478 35.3904 63.6297 35.9197 64.1871L34.4105 63.906L34.3562 64.0293L41.0523 67.2916C37.6464 68.3263 32.2154 65.7957 31.0762 62.5777Z" fill="#BCBEC0"/>
<path d="M51.9371 63.9035L50.4691 64.1747C50.9711 63.6335 51.5213 63.0372 52.0766 62.4461C52.1247 62.4058 52.1856 62.3839 52.2483 62.3841C53.2535 62.3545 54.2586 62.4475 55.2413 62.6611C53.4664 66.1884 49.5383 67.9863 45.2429 67.3086L51.9764 64.0356C51.9639 63.9916 51.9507 63.9476 51.9371 63.9035Z" fill="#BCBEC0"/>
<path d="M70.4836 29.0308L64.9193 24.1874L64.8184 24.2809C65.0992 24.7069 65.3803 25.1326 65.7154 25.6386C65.5454 25.5718 65.4522 25.5369 65.3605 25.4984C64.8914 25.3032 64.4356 25.0618 63.9504 24.9238C63.4509 24.7814 63.1892 24.4835 63.0505 24.0098C62.8512 23.328 62.6262 22.6522 62.4171 21.9748C62.3925 21.8945 62.3991 21.8042 62.391 21.718C65.6798 21.5393 70.1316 25.5329 70.4836 29.0308Z" fill="#BCBEC0"/>
<path d="M18.249 29.5937C18.4758 30.599 18.6964 31.5703 18.9118 32.5426C18.9275 32.6044 18.9196 32.6698 18.8898 32.7261C18.4281 33.3866 17.9601 34.0415 17.4709 34.7302V33.0699L17.3744 33.0376C16.6705 35.4182 15.9669 37.7985 15.2516 40.2187C13.6639 37.1439 15.2755 31.3516 18.249 29.5937Z" fill="#BCBEC0"/>
<path d="M15.8334 29.0545C16.4892 25.263 20.4162 21.7295 23.9935 21.7046C23.8654 22.1783 23.7248 22.6314 23.6224 23.093C23.389 24.1487 22.917 24.9585 21.7404 25.1805C21.3807 25.2483 21.0497 25.4685 20.6118 25.66L21.5642 24.2338L21.4754 24.1454L15.8334 29.0545Z" fill="#BCBEC0"/>
<path d="M68.1043 29.591C71.3318 31.9734 72.4203 36.1175 71.0771 40.2032C70.7332 39.0147 70.3948 37.8244 70.0443 36.6381C69.692 35.4452 69.3275 34.2557 68.8853 33.079V34.7587C68.7814 34.6171 68.7198 34.5364 68.6614 34.4531C68.3043 33.942 67.937 33.4371 67.5971 32.9142C67.5028 32.7674 67.4209 32.5546 67.4536 32.3972C67.6452 31.4784 67.8731 30.5685 68.1043 29.591Z" fill="#BCBEC0"/>
<path d="M66.3105 51.5234L65.1868 52.8282C65.2947 52.1585 65.4525 51.5839 65.4642 51.006C65.4793 50.2722 65.8613 49.8443 66.4258 49.4888C67.0262 49.1108 67.6167 48.7182 68.2241 48.3231C69.1325 50.944 66.9462 56.0351 64.2263 57.7226C64.1925 57.6943 64.1191 57.6587 64.1224 57.6323C64.1756 57.192 63.878 56.7491 64.0795 56.3264C64.7856 54.8462 65.5185 53.3785 66.239 51.905C66.2926 51.7949 66.3289 51.6778 66.3733 51.5641L66.3105 51.5234Z" fill="#BCBEC0"/>
<path d="M21.1411 52.8116L20.0067 51.4907L19.9538 51.5189C19.9851 51.62 20.0219 51.7194 20.0639 51.8165C20.794 53.3128 21.5261 54.8079 22.2601 56.3018C22.3456 56.4757 22.4194 56.6126 22.2876 56.8217C22.2095 56.9465 22.2832 57.1622 22.2733 57.3354C22.2656 57.4748 22.2344 57.6132 22.208 57.7897C19.338 55.9334 17.3745 51.3854 18.0935 48.3553C19.0132 48.8415 19.8701 49.4025 20.6471 50.0824C20.7173 50.154 20.7623 50.2465 20.7756 50.3459C20.9 51.1465 21.0145 51.9489 21.1411 52.8116Z" fill="#BCBEC0"/>
<path d="M49.9507 10.6867L50.1283 11.0698C49.5833 11.1769 49.0618 11.284 48.5381 11.3776C48.4647 11.3908 48.3513 11.3644 48.3006 11.3127C47.6543 10.6581 47.0319 9.98439 46.8047 9.05203C46.8041 9.02837 46.8081 9.00482 46.8164 8.98268C50.4542 8.52953 53.5694 9.64021 56.2078 12.1419C56.4618 12.3826 56.8317 12.569 56.8659 13.0724C56.6824 12.9697 56.5613 12.9044 56.4431 12.8369C54.975 11.9929 53.4387 11.3692 51.7226 11.2099C51.1229 11.1538 50.5445 10.8687 49.9507 10.6867Z" fill="#BCBEC0"/>
<path d="M29.4686 12.989C29.5266 12.8661 29.5571 12.716 29.647 12.6239C32.1166 10.0896 35.0615 8.69966 38.6633 8.90771C38.9422 8.92385 39.2208 8.9444 39.5625 8.96789C39.4061 9.48855 39.2219 9.96189 38.8985 10.3739C38.0746 11.4244 38.0739 11.4241 36.7666 11.1812C36.5926 11.1485 36.4187 11.1144 36.2212 11.0762L36.3893 10.6833C36.3599 10.6682 36.3313 10.6436 36.3207 10.6499C35.5081 11.1309 34.5957 11.2054 33.6892 11.3511C32.3166 11.5712 31.0714 12.1605 29.8756 12.8555C29.7655 12.9186 29.658 12.9806 29.549 13.0433L29.4686 12.989Z" fill="#BCBEC0"/>
<path d="M25.5493 54.7045C26.0173 54.6715 26.458 54.6385 26.8992 54.6098C27.4196 54.5761 27.9404 54.5416 28.4615 54.5166C28.9548 54.4932 29.6462 55.1404 29.6767 55.6394C29.7347 56.5909 29.7941 57.5419 29.8562 58.5462L26.2404 58.7825C26.3138 60.0579 26.3872 61.2967 26.4646 62.5769L22.4062 62.8264C22.3222 61.4614 22.2396 60.1203 22.1541 58.7297L25.7732 58.4952C25.6976 57.2183 25.6246 55.9792 25.5493 54.7045ZM29.2759 58.0351C29.2135 57.0117 29.1541 56.0416 29.0924 55.0369L26.1277 55.2204C26.1886 56.2214 26.2474 57.1904 26.309 58.2094L29.2759 58.0351ZM22.7373 59.2459C22.8001 60.2781 22.8591 61.2493 22.9208 62.2441L25.8793 62.0569C25.822 61.0571 25.7662 60.0862 25.7079 59.0672L22.7373 59.2459Z" fill="#BCBEC0"/>
<path d="M59.7347 58.1287C59.8011 57.1013 59.8635 56.1389 59.9281 55.1404L57.1755 54.9445C57.4298 54.5963 57.6658 54.389 58.1029 54.4389C58.8839 54.5281 59.6712 54.5607 60.5054 54.6205C60.432 55.8347 60.3586 57.0231 60.2852 58.2648L64.0378 58.5191C63.9516 59.8796 63.8668 61.2204 63.7784 62.618L59.7159 62.352C59.7934 61.1411 59.8693 59.956 59.9494 58.7044L56.1842 58.4453C56.2404 57.6293 56.2987 56.8448 56.3461 56.0603C56.378 55.5254 56.4026 55.4766 56.9417 55.1874C56.887 56.0981 56.8316 56.9942 56.7773 57.9331L59.7347 58.1287ZM60.2984 61.8346L63.2638 62.0251C63.3291 60.9977 63.3908 60.0297 63.4543 59.0332L60.4896 58.8442C60.4246 59.8716 60.3626 60.8318 60.2984 61.8365V61.8346Z" fill="#BCBEC0"/>
<path d="M13.1907 39.3424C13.8414 39.6301 14.2984 40.0641 14.7432 40.5489C15.203 41.0504 15.3377 41.5241 14.9924 42.1307C14.8573 42.3677 14.7964 42.6469 14.6896 42.9379L14.2826 42.6689C14.3747 43.0678 14.4705 43.416 14.5318 43.7697C14.5751 44.0185 14.6085 44.279 14.5839 44.5282C14.4132 46.2589 14.8206 47.8881 15.4207 49.4871C15.4684 49.6141 15.508 49.744 15.5513 49.8731L15.4746 49.9465C15.3693 49.8467 15.2456 49.7609 15.1616 49.6457C13.048 46.7631 12.2178 43.5914 13.0241 40.0583C13.0762 39.8374 13.1287 39.6154 13.1907 39.3424Z" fill="#BCBEC0"/>
<path d="M15.1252 50.4759C15.8677 50.3757 16.5199 50.6175 17.1908 50.885C17.6561 51.0711 17.8694 51.3345 17.9028 51.8203C17.9266 52.1704 18.0246 52.5149 18.0973 52.9027L17.5383 52.8605C18.4415 53.5243 18.763 54.5117 19.3257 55.3318C19.9327 56.2172 20.6836 57.0035 21.3787 57.8269C21.4921 57.9612 21.6356 58.0701 21.7593 58.185C21.6573 58.422 21.5435 58.4752 21.3097 58.353C18.1167 56.685 16.0831 54.0967 15.1396 50.6363C15.13 50.5833 15.1253 50.5297 15.1252 50.4759Z" fill="#BCBEC0"/>
<path d="M68.6131 52.869L68.246 52.9153C68.3539 52.3403 68.4545 51.798 68.5606 51.2568C68.5664 51.2325 68.5772 51.2096 68.5922 51.1896C68.6072 51.1696 68.6262 51.1529 68.6479 51.1405C69.4597 50.7438 70.2661 50.3222 71.2423 50.48C70.5175 53.094 69.2858 55.3744 67.0676 57.0175C66.4437 57.4787 65.7724 57.8713 65.1261 58.3017C64.9143 58.4423 64.7521 58.4408 64.6171 58.1139C65.0373 57.7033 65.5346 57.3136 65.91 56.8296C66.4679 56.1093 66.9377 55.3201 67.4478 54.5639C67.8383 53.9874 68.235 53.4183 68.6131 52.869Z" fill="#BCBEC0"/>
<path d="M52.9983 66.4502L52.6511 66.23C53.0468 65.8598 53.4218 65.5028 53.8068 65.1542C53.8348 65.131 53.8674 65.114 53.9025 65.1043C53.9375 65.0946 53.9742 65.0925 54.0102 65.0981C54.862 65.3109 55.72 65.5149 56.3568 66.1904C54.7133 68.3417 48.1068 69.5558 46.0295 68.0738C46.7459 68.0122 47.4609 68.0089 48.1472 67.8771C48.9913 67.7161 49.8409 67.5161 50.6384 67.2049C51.4099 66.9019 52.1465 66.5309 52.9983 66.4502Z" fill="#BCBEC0"/>
<path d="M29.9437 66.2342C30.6201 65.5135 31.4903 65.3095 32.352 65.0927C32.4097 65.078 32.501 65.1209 32.5502 65.1661C32.9253 65.5073 33.2934 65.8559 33.685 66.2221L33.2299 66.5365C34.3027 66.5061 35.1087 66.9834 35.9627 67.3309C37.2278 67.8446 38.571 67.9848 39.9264 68.0318C40.0493 68.0362 40.1727 68.0318 40.3374 68.0318C39.7143 68.5785 36.6996 68.872 34.8954 68.5638C33.0457 68.2482 31.4521 67.3676 29.9437 66.2342Z" fill="#BCBEC0"/>
<path d="M21.2285 19.2666C21.4836 19.9106 21.4751 20.5659 21.4094 21.2451C21.3558 21.7999 21.1639 22.1624 20.602 22.3091C20.3143 22.3855 20.0475 22.541 19.7505 22.6698C19.7168 22.5109 19.6911 22.3921 19.6658 22.2732C19.2334 23.2272 18.3677 23.7655 17.6982 24.4802C16.8284 25.4086 16.2008 26.4983 15.6731 27.6479C15.6125 27.7796 15.5498 27.9106 15.4341 28.0225C15.5248 26.4726 16.0078 25.0369 16.6956 23.6635C17.5687 21.9169 19.6357 19.9175 21.2285 19.2666Z" fill="#BCBEC0"/>
<path d="M70.9033 28.1067C70.6394 27.579 70.424 27.1204 70.1847 26.6757C69.5814 25.5384 68.7756 24.5208 67.8068 23.6728C67.3664 23.289 67.0504 22.7646 66.6827 22.31C66.6691 22.3702 66.6419 22.4935 66.6001 22.6824C66.0969 22.4546 65.6165 22.2392 65.1387 22.0172C65.1186 22.0034 65.1014 21.9857 65.0882 21.9651C65.0751 21.9446 65.0661 21.9216 65.062 21.8976C64.8946 21.021 64.7592 20.1448 65.1089 19.2766C67.8611 20.1811 71.2912 25.3507 70.9033 28.1067Z" fill="#BCBEC0"/>
<path d="M71.4963 32.464L71.2229 32.7634C70.9293 32.3194 70.6463 31.9004 70.3736 31.4751C70.3369 31.4186 70.3164 31.3199 70.3398 31.2616C70.6738 30.4367 71.0111 29.6104 71.8104 29.067C73.1636 31.5621 73.6943 34.1628 72.9849 36.9452C72.7702 37.7851 72.6179 38.6591 72.0369 39.4506C72.0622 38.3968 72.1074 37.4497 72.0982 36.5031C72.0958 36.0326 72.0352 35.5643 71.9176 35.1088C71.6886 34.2458 71.4163 33.3978 71.4963 32.464Z" fill="#BCBEC0"/>
<path d="M14.5508 29.0772C15.3215 29.6118 15.6643 30.4227 15.9964 31.2388C16.0087 31.2726 16.0138 31.3085 16.0115 31.3443C16.0092 31.3802 15.9996 31.4152 15.9832 31.4472C15.7061 31.8845 15.4195 32.3157 15.091 32.8165C14.9872 32.6463 14.9156 32.5292 14.8444 32.4129C14.9273 33.3093 14.6906 34.0964 14.4774 34.8985C14.117 36.2458 14.1607 37.6207 14.328 38.9941C14.3416 39.1042 14.3574 39.2179 14.295 39.3823C14.2007 39.2685 14.0707 39.1698 14.0175 39.0396C12.6302 35.6595 12.7169 32.3483 14.5005 29.1216C14.5053 29.1102 14.5185 29.104 14.5508 29.0772Z" fill="#BCBEC0"/>
<path d="M60.9851 16.7478C60.6008 16.8076 60.2008 16.4356 59.8738 16.8667C59.6091 17.216 59.6903 17.5855 59.9391 17.999C59.1933 17.9198 58.6645 17.4344 58.0116 17.2351C58.183 17.6651 58.819 17.7716 58.8216 18.3913C57.9642 18.1073 57.1942 17.8537 56.4265 17.5943C56.3676 17.5702 56.3184 17.5274 56.2863 17.4725C55.8796 16.786 55.4788 16.0973 55.0212 15.3179C57.2585 15.1323 59.2557 15.3943 60.9851 16.7478Z" fill="#BCBEC0"/>
<path d="M42.4322 66.1599C42.4322 65.3578 42.4296 64.5561 42.4322 63.7544C42.4344 63.226 42.706 62.9104 43.1489 62.9038C43.6103 62.8991 43.8866 63.2179 43.8873 63.7705C43.8895 65.3869 43.8895 67.0032 43.8873 68.6194C43.8873 69.1368 43.6014 69.4733 43.1713 69.4824C42.7335 69.4916 42.4344 69.1401 42.4325 68.6018C42.43 67.7887 42.4322 66.9741 42.4322 66.1599Z" fill="#BCBEC0"/>
<path d="M27.5508 17.9972L28.2826 17.3202L28.2488 17.2678L27.5607 17.5654C27.7075 16.7801 27.2913 16.4605 26.4369 16.688C26.4894 16.101 26.631 15.9175 27.1658 15.7307C28.4731 15.2776 29.8119 15.1547 31.2421 15.3271C31.1442 15.5425 31.0693 15.7256 30.9786 15.9002C30.826 16.1938 30.645 16.4738 30.5078 16.7739C30.1569 17.5444 29.6064 18.0343 28.7443 18.1543C28.5193 18.1855 28.3222 18.2665 28.1013 18.1088C27.9897 18.028 27.8099 18.0446 27.5508 17.9972Z" fill="#BCBEC0"/>
<path d="M22.9832 25.2814C22.9376 25.8146 22.9031 26.3184 22.8444 26.8196C22.8338 26.9076 22.7402 27.0166 22.6562 27.0614C21.3555 27.7546 20.0516 28.4421 18.7446 29.1239C18.6796 29.158 18.5754 29.2134 18.5372 29.1877C18.088 28.8883 17.8032 29.1965 17.4997 29.4501C17.4676 29.4697 17.4334 29.4854 17.3976 29.497C18.074 27.6866 20.6042 25.7801 22.9832 25.2814Z" fill="#BCBEC0"/>
<path d="M68.9608 29.5304C68.7979 29.4027 68.6852 29.2816 68.5465 29.2148C68.3949 29.1415 68.1685 29.0314 68.0635 29.093C67.7948 29.2475 67.6113 29.1297 67.3981 29.0167C66.2174 28.3929 65.0375 27.7692 63.8513 27.1542C63.6587 27.0544 63.5889 26.9498 63.5841 26.7198C63.5746 26.2552 63.5005 25.7925 63.4528 25.3254C65.5352 25.6241 68.2543 27.6826 68.9608 29.5304Z" fill="#BCBEC0"/>
<path d="M20.9273 59.0273C20.9273 59.3076 20.9005 59.5387 20.9317 59.7611C21.1067 61.02 21.3042 62.2764 21.4738 63.536C21.5167 63.8567 21.6525 63.9712 21.9688 63.9642C23.2802 63.9367 24.5919 63.9297 25.9032 63.9C26.0794 63.896 26.2537 63.8035 26.4372 63.7496C26.4284 63.7349 26.4372 63.7444 26.4398 63.7551C26.5499 64.5135 26.5154 64.5476 25.7549 64.5928C24.2685 64.6811 22.7824 64.7755 21.2965 64.876C20.8021 64.9087 20.7357 64.8683 20.688 64.3917C20.521 62.7339 20.3536 61.0762 20.2072 59.4169C20.198 59.3124 20.3434 59.1428 20.4568 59.0922C20.6102 59.0243 20.8018 59.0412 20.9273 59.0273Z" fill="#BCBEC0"/>
<path d="M65.2124 58.6946C65.2828 58.6946 65.3834 58.7008 65.4832 58.6946C65.8539 58.6678 65.9677 58.8355 65.9431 59.1999C65.8403 60.7094 65.7596 62.2204 65.67 63.731C65.6664 63.7945 65.6641 63.8583 65.6583 63.9214C65.5996 64.5452 65.5992 64.5452 64.9734 64.528C63.3839 64.4825 61.7944 64.4315 60.2045 64.3955C59.9406 64.3893 59.8305 64.299 59.8503 64.0367C59.8617 63.8859 59.8522 63.7336 59.8522 63.6283C60.1458 63.6576 60.4086 63.7101 60.6717 63.7064C61.8931 63.6892 63.1142 63.6444 64.3356 63.6363C64.7059 63.6341 64.8097 63.4804 64.8439 63.1399C64.972 61.863 65.1316 60.5894 65.2659 59.3132C65.2858 59.1246 65.2347 58.928 65.2124 58.6946Z" fill="#BCBEC0"/>
<path d="M61.6091 15.4113C61.1082 15.2535 60.6483 15.1684 60.4817 15.9801L59.5598 14.8118L59.4243 14.9262L59.4698 15.3798C58.9336 15.2719 58.4184 15.1706 57.9049 15.0609C57.8759 15.0521 57.8491 15.0373 57.8262 15.0176C57.8032 14.9978 57.7847 14.9734 57.7717 14.9461C57.4384 14.1341 57.1004 13.3213 57.267 12.3809C57.3335 12.3864 57.4072 12.3787 57.4718 12.4C58.781 12.8322 60.0255 13.3936 61.1383 14.2236C61.3632 14.3916 61.5394 14.5435 61.4873 14.869C61.4634 15.0158 61.5537 15.1831 61.6091 15.4113Z" fill="#BCBEC0"/>
<path d="M54.438 21.7928L55.7332 20.2491C55.8558 20.4381 55.9857 20.5926 56.0661 20.7694C56.3538 21.4046 56.6397 22.0412 56.8952 22.6899C56.9924 22.9372 57.0959 23.0627 57.3818 23.1236C58.2454 23.3071 59.0965 23.5511 60.0584 23.798L58.6814 25.4451L54.438 21.7928Z" fill="#BCBEC0"/>
<path d="M29.0789 12.3458C29.2551 13.3152 28.8994 14.1361 28.5651 14.9583C28.5405 15.0189 28.4278 15.0611 28.3489 15.0787C27.8791 15.1822 27.4075 15.2761 26.9121 15.3781V14.9033C26.8141 14.9925 26.7455 15.0416 26.6937 15.1044C26.4897 15.3513 26.3128 15.5715 25.9068 15.4533C25.7035 15.3946 25.4378 15.5516 25.197 15.6118C25.3655 15.2288 25.694 14.751 24.9611 14.4178C26.2162 13.4235 27.5914 12.7927 29.0789 12.3458Z" fill="#BCBEC0"/>
<path d="M22.8567 27.1297C23.0098 27.7245 23.2105 28.2261 23.8803 28.4139C22.5679 29.6028 21.24 30.6467 19.5129 31.022C19.3984 31.047 19.1518 30.96 19.1459 30.9087C19.1217 30.6452 18.7818 30.3726 19.1033 30.1143C20.3321 29.1272 21.5696 28.1516 22.8567 27.1297Z" fill="#BCBEC0"/>
<path d="M67.1543 31.0804C65.2767 30.7792 63.896 29.6798 62.4933 28.4503C63.1906 28.294 63.3921 27.7704 63.573 27.1958L66.406 29.4417C66.6262 29.6153 66.8309 29.8105 67.0666 29.9583C67.3528 30.1385 67.4259 30.3521 67.2868 30.6555C67.2332 30.7689 67.2101 30.8947 67.1543 31.0804Z" fill="#BCBEC0"/>
<path d="M27.7145 25.4347C27.3574 24.9875 26.946 24.4738 26.5074 23.9259C27.2741 23.5535 28.0569 23.3568 28.8584 23.2552C29.2897 23.2005 29.5293 23.0651 29.6934 22.6138C29.972 21.8473 30.3771 21.127 30.7702 20.3022L31.9608 21.7864L27.7145 25.4347Z" fill="#BCBEC0"/>
<path d="M59.4141 62.9475C57.997 63.8796 56.3985 64.5009 54.7238 64.7707L54.6375 64.6401L58.1634 61.562L59.4141 62.9475Z" fill="#BCBEC0"/>
<path d="M26.9775 62.9815L28.1743 61.5611L31.6946 64.6286L31.6212 64.7666C29.9609 64.5097 28.4253 63.9138 26.9775 62.9815Z" fill="#BCBEC0"/>
<path d="M33.5564 61.7957C33.1835 61.9138 32.9636 61.8173 32.7405 61.5957C31.9111 60.7723 31.0614 59.9698 30.2081 59.1479L31.3246 57.8244C31.805 58.4625 32.434 58.9281 32.6293 59.7552C32.7453 60.2469 33.0536 60.6927 33.2727 61.1601C33.3692 61.3678 33.4595 61.5788 33.5564 61.7957Z" fill="#BCBEC0"/>
<path d="M54.8663 57.9231L55.9347 59.0973C55.3574 59.7346 54.7969 60.3588 54.2306 60.9745C54.0328 61.1891 53.7998 61.3715 53.6067 61.5891C53.4001 61.8206 53.1726 61.9259 52.8026 61.7935C52.876 61.6078 52.916 61.3957 53.0283 61.2321C53.3983 60.6927 53.6089 60.1063 53.8053 59.4793C53.9789 58.9215 54.4795 58.4662 54.8663 57.9231Z" fill="#BCBEC0"/>
<path d="M63.948 58.2443L60.5572 58.0182C60.6251 56.9542 60.693 55.8974 60.7679 54.7269L63.948 58.2443ZM62.6267 57.717L61.2266 56.1711L61.1477 56.2126V57.717H62.6267Z" fill="#BCBEC0"/>
<path d="M26.7245 62.4505C26.6511 61.2583 26.5854 60.1733 26.5153 59.0289L29.778 58.8271L26.7245 62.4505ZM26.8837 59.5518C26.9359 60.0757 26.9817 60.5377 27.0382 61.1053L28.4883 59.3855L26.8837 59.5518Z" fill="#BCBEC0"/>
<path d="M23.5642 18.2596C22.9322 18.2596 22.7249 17.947 22.9197 17.514C23.3058 16.6565 23.6905 15.7986 24.0835 14.9437C24.2395 14.6032 24.5199 14.4748 24.8564 14.5683C25.2392 14.6751 25.3413 14.8846 25.1772 15.2497C24.7867 16.119 24.4065 16.9937 23.9885 17.8494C23.8919 18.0464 23.6552 18.1748 23.5642 18.2596Z" fill="#BCBEC0"/>
<path d="M24.6449 19.2763C24.0944 19.2855 23.9024 18.9971 24.116 18.5234C24.497 17.6795 24.8867 16.8388 25.2582 15.9898C25.4152 15.6291 25.6828 15.5399 26.0289 15.6038C26.4036 15.6727 26.5276 15.9212 26.3698 16.273C25.9804 17.1415 25.5833 18.006 25.1954 18.8756C25.0816 19.1358 24.9095 19.2881 24.6449 19.2763Z" fill="#BCBEC0"/>
<path d="M63.7504 18.1816C63.753 18.6014 63.5266 18.7915 63.1467 18.6986C62.2338 18.4755 61.3218 18.2493 60.4107 18.0198C60.0172 17.92 59.8106 17.5982 59.8822 17.2251C59.9446 16.8992 60.1295 16.7756 60.4558 16.8563C61.3803 17.0845 62.3015 17.3256 63.2282 17.5454C63.59 17.6312 63.7178 17.8694 63.7504 18.1816Z" fill="#BCBEC0"/>
<path d="M64.5312 16.775C64.5312 17.2465 64.3176 17.4241 63.9271 17.328C63.015 17.1041 62.1038 16.8769 61.1936 16.6462C60.7668 16.538 60.5734 16.1872 60.6974 15.7755C60.7763 15.5143 60.9308 15.402 61.2134 15.4746C62.1475 15.7146 63.0822 15.9516 64.0207 16.1769C64.3825 16.2631 64.5099 16.5002 64.5312 16.775Z" fill="#BCBEC0"/>
<path d="M59.6659 58.9478C59.5969 60.0244 59.5312 61.0547 59.4582 62.1966L56.3173 58.724L59.6659 58.9478ZM59.0453 61.0998C59.0787 60.5157 59.1055 60.046 59.1345 59.5364L57.5369 59.4413L59.0453 61.0998Z" fill="#BCBEC0"/>
<path d="M25.2934 54.8678C25.3638 56.0647 25.4269 57.138 25.4926 58.2509L22.2795 58.4457L25.2934 54.8678ZM24.8529 57.7944C24.8162 57.2525 24.7832 56.767 24.7428 56.1836L23.2939 57.9008L24.8529 57.7944Z" fill="#BCBEC0"/>
<path d="M65.5163 15.5691C65.5052 16.0766 65.2861 16.2615 64.929 16.1738C64.0064 15.9474 63.087 15.7075 62.1625 15.4888C61.8238 15.4088 61.6696 15.1952 61.6374 14.8782C61.594 14.4493 61.8443 14.2372 62.2613 14.3385C62.7534 14.4585 63.247 14.5737 63.7355 14.708C63.9014 14.7535 64.0512 14.8566 64.2126 14.9245C64.5485 15.0661 64.8912 15.1919 65.2215 15.3453C65.3522 15.4066 65.4579 15.5236 65.5163 15.5691Z" fill="#BCBEC0"/>
<path d="M22.5146 17.1351C21.9597 17.0584 21.774 16.7729 21.9766 16.3205C22.0867 16.0769 22.1795 15.8248 22.3113 15.5936C22.5598 15.1577 22.8325 14.7354 23.0908 14.3046C23.2211 14.0874 23.3844 13.8775 23.4578 13.6412C23.5577 13.3242 23.7584 13.3301 23.9871 13.4115C24.2399 13.5018 24.4095 13.6746 24.2777 13.9693C23.8623 14.8972 23.4523 15.8281 23.0064 16.741C22.9224 16.9113 22.6823 17.0056 22.5146 17.1351Z" fill="#BCBEC0"/>
<path d="M20.7208 14.9344C20.8448 14.4023 20.9725 13.8732 21.0914 13.3419C21.1696 12.9922 21.366 12.8264 21.7374 12.8385C22.2695 12.8554 22.8017 12.8425 23.3342 12.8425C23.3368 14.1693 22.1301 15.1248 20.7208 14.9344Z" fill="#BCBEC0"/>
<path d="M65.9092 15.0471C64.6981 15.3407 63.5603 14.3452 63.4014 12.8372C64.0026 12.8698 64.5997 12.8805 65.1895 12.9494C65.3363 12.9667 65.5444 13.1523 65.5796 13.2962C65.7206 13.873 65.8046 14.4637 65.9092 15.0471Z" fill="#BCBEC0"/>
<path d="M28.6678 60.9748L29.8463 59.5805L31.5928 61.9772L30.443 62.3412L28.6678 60.9748Z" fill="#BCBEC0"/>
<path d="M56.4378 59.6587L57.646 60.9892C57.0221 61.4713 56.4271 61.934 55.8994 62.3431L54.7502 61.9732L56.4378 59.6587Z" fill="#BCBEC0"/>
<path d="M59.3396 56.5044C59.3396 57.0841 58.8746 57.5597 58.3083 57.5586C57.7486 57.5586 57.2697 57.0695 57.27 56.5011C57.2704 55.9327 57.7493 55.4451 58.3109 55.4469C58.8783 55.4484 59.3392 55.9228 59.3396 56.5044Z" fill="#BCBEC0"/>
<path d="M25.2597 20.3695C25.0146 20.2294 24.957 20.076 25.0623 19.8474C25.4799 18.9367 25.8826 18.0194 26.305 17.1113C26.483 16.7293 27.0001 16.6247 27.2985 16.9219C27.3954 17.0184 27.4453 17.2544 27.3998 17.3839C27.253 17.8003 27.0507 18.1988 26.8606 18.5995C26.8239 18.6729 26.7527 18.7694 26.6848 18.7808C26.1343 18.8747 25.9237 19.3223 25.6704 19.7289C25.5387 19.9406 25.4014 20.1487 25.2597 20.3695Z" fill="#BCBEC0"/>
<path d="M58.9528 18.3523C59.0577 18.0588 59.2302 18.0082 59.4596 18.0665C60.4069 18.3076 61.3563 18.5406 62.3021 18.7875C62.6845 18.8873 62.8779 19.2792 62.7458 19.6538C62.6636 19.8868 62.5124 20.0094 62.2481 19.9411C61.8422 19.8365 61.433 19.7452 61.0297 19.6322C60.9287 19.6039 60.7944 19.5346 60.7614 19.4505C60.5694 18.9603 60.1235 18.8312 59.7018 18.6609C59.457 18.5618 59.2137 18.4598 58.9528 18.3523Z" fill="#BCBEC0"/>
<path d="M55.9167 65.2394L59.7204 63.3835C59.8764 63.709 59.4367 64.2715 60.0313 64.6557C59.0771 64.867 58.1199 65.0828 57.1624 65.2868C56.9392 65.3377 56.7108 65.3623 56.4819 65.3602C56.297 65.3547 56.1138 65.2835 55.9167 65.2394Z" fill="#BCBEC0"/>
<path d="M26.3256 62.8563C26.1384 63.2372 25.9127 63.396 25.5064 63.3887C24.4513 63.3696 23.395 63.4015 22.3395 63.4228C22.1274 63.4268 21.9802 63.4177 21.9439 63.148C21.8011 62.0784 21.6587 61.0077 21.4726 59.9451C21.3992 59.5228 21.5171 59.2395 21.9031 58.9691C21.9883 60.3495 22.0712 61.6946 22.1578 63.1025L26.3256 62.8563Z" fill="#BCBEC0"/>
<path d="M30.4122 65.2318C30.2536 65.278 30.0892 65.3749 29.9325 65.3639C28.8022 65.2809 27.6872 65.0534 26.6147 64.6869V63.3869L30.4122 65.2318Z" fill="#BCBEC0"/>
<path d="M59.9301 62.634L61.9512 62.7642L64.0175 62.8981L64.2964 58.6899C64.5977 58.921 64.7768 59.1082 64.7166 59.5129C64.5658 60.5315 64.4836 61.56 64.3709 62.5844C64.3529 62.7462 64.3203 62.9066 64.2806 63.1528C63.431 63.1528 62.5924 63.151 61.7556 63.1528C61.4371 63.1528 61.1185 63.1638 60.8014 63.1722C60.2736 63.188 60.2413 63.17 59.9301 62.634Z" fill="#BCBEC0"/>
<path d="M24.224 19.3797L22.022 20.574C21.9401 19.871 22.4936 19.5396 22.7215 19.0542C22.9923 18.4774 23.5741 18.4198 24.0765 18.1776C23.9546 18.5794 23.577 19.0065 24.224 19.3797Z" fill="#BCBEC0"/>
<path d="M60.2168 24.8259C61.2172 24.5812 61.4547 24.6791 61.8089 25.3994C62.1307 26.0555 62.1094 26.1116 61.2547 26.7787C60.9104 26.1303 60.5717 25.4919 60.2168 24.8259Z" fill="#BCBEC0"/>
<path d="M26.1066 24.8648L25.1377 26.6994C24.3916 26.2253 24.3215 26.018 24.6565 25.3719C25.0224 24.6652 25.3304 24.5474 26.1066 24.8648Z" fill="#BCBEC0"/>
<path d="M28.4834 54.253L25.6691 54.4236L27.1291 52.6895L27.4594 53.0565L26.7544 53.9143C27.1265 53.8934 27.4209 53.9033 27.7053 53.8545C28.0521 53.7925 28.301 53.878 28.4834 54.253Z" fill="#BCBEC0"/>
<path d="M30.1069 58.3045C30.0541 57.4177 30.0016 56.5308 29.9454 55.5856C30.6167 55.9301 30.2886 56.5785 30.5253 57.0614L31.081 56.4376L31.528 56.7458L30.2067 58.321L30.1069 58.3045Z" fill="#BCBEC0"/>
<path d="M55.7082 20.0478C55.623 20.1428 55.5474 20.2269 55.4725 20.3116C55.3977 20.3964 55.3213 20.4819 55.1914 20.6286L53.7116 18.9166L53.7659 18.7698C53.9443 18.7823 54.1395 18.7529 54.2988 18.8153C54.8005 19.0127 55.3188 19.4831 55.7082 20.0478Z" fill="#BCBEC0"/>
<path d="M59.1541 53.7947L58.7398 53.2913L59.0851 52.8627C59.5204 53.3456 59.9377 53.8083 60.4156 54.3388L58.0201 54.1855C58.1375 53.8563 58.1375 53.8563 59.1541 53.7947Z" fill="#BCBEC0"/>
<path d="M62.8201 18.7351C63.1038 18.8595 63.4642 18.9072 63.6275 19.1119C63.9468 19.5155 64.3983 19.8898 64.3373 20.5748C63.8676 20.3235 63.4451 20.1059 63.0337 19.8692C62.9706 19.8325 62.9379 19.7137 62.9236 19.6278C62.8836 19.3732 62.8627 19.1126 62.8201 18.7351Z" fill="#BCBEC0"/>
<path d="M55.9343 58.2987L54.6604 56.8916L55.0806 56.598L55.513 57.1382C55.6803 56.6725 55.4252 56.1056 56.0785 55.9016C56.0323 56.6703 55.9871 57.4244 55.9343 58.2987Z" fill="#BCBEC0"/>
<path d="M24.7404 20.0107L25.2197 20.6301C25.1679 20.7207 25.1019 20.8411 25.0318 20.9603C24.7345 21.4619 24.7455 21.4373 24.235 21.2142C24.0203 21.1207 23.7469 21.1618 23.4103 21.1342L24.7404 20.0107Z" fill="#BCBEC0"/>
<path d="M21.8335 19.3152C21.6603 18.7648 22.3932 17.2836 22.8612 17.2091C22.7698 17.5283 22.5066 17.8281 22.7635 18.1726C22.7778 18.1917 22.7133 18.2805 22.674 18.3275C22.4046 18.646 22.1337 18.9623 21.8335 19.3152Z" fill="#BCBEC0"/>
<path d="M32.5967 18.9631L31.2072 20.5717L30.8479 20.1898C31.3023 19.5898 31.8289 19.133 32.5185 18.8853L32.5967 18.9631Z" fill="#BCBEC0"/>
<path d="M61.6488 20.0412L62.894 21.0987C62.4903 21.1537 62.0866 21.0165 61.8374 21.4616C61.6671 21.2257 61.5071 21.0712 61.6803 20.7707C61.7688 20.6191 61.67 20.3583 61.6488 20.0412Z" fill="#BCBEC0"/>
<path d="M22.2156 15.0436C22.0662 15.6905 21.8306 15.921 21.355 15.8267C21.1974 15.7922 21.0555 15.7069 20.9513 15.5838C20.8195 15.4161 20.8445 15.2554 21.1128 15.219C21.4849 15.168 21.8519 15.1016 22.2156 15.0436Z" fill="#BCBEC0"/>
<path d="M63.5944 14.3832C63.1948 14.2936 62.7606 14.3098 62.6681 13.7979C62.6424 13.6566 62.6461 13.4827 62.7085 13.3609C62.7676 13.2453 62.9213 13.1774 63.0336 13.0901C63.0971 13.1888 63.1772 13.2809 63.2205 13.3881C63.3478 13.7018 63.4601 14.0217 63.5944 14.3832Z" fill="#BCBEC0"/>
<path d="M64.4809 19.2857C64.2974 19.0655 64.1176 18.8549 63.9484 18.6362C63.9066 18.5823 63.8677 18.4924 63.8827 18.4326C63.98 18.0425 63.8211 17.7413 63.5601 17.4646C64.0526 17.4544 64.7301 18.7815 64.4809 19.2857Z" fill="#BCBEC0"/>
<path d="M44.3959 67.2134C44.3478 67.0516 44.3166 66.9462 44.2733 66.8009L46.0415 66.2616L46.0782 66.3441L44.3959 67.2134Z" fill="#BCBEC0"/>
<path d="M42.0743 66.7977C42.021 66.9554 41.9825 67.0692 41.9363 67.2068L40.2601 66.3493C40.2693 66.3218 40.2788 66.2942 40.288 66.2671L42.0743 66.7977Z" fill="#BCBEC0"/>
<path d="M17.1676 28.6442L16.0666 29.9567C15.8368 29.6756 15.8332 29.6712 16.0589 29.4797C16.4061 29.1836 16.7588 28.8926 17.1093 28.602L17.1676 28.6442Z" fill="#BCBEC0"/>
<path d="M69.2637 28.6243L70.4914 29.6517L70.3079 29.9962L69.2068 28.6826L69.2637 28.6243Z" fill="#BCBEC0"/>
<path d="M64.3975 21.5057L63.2598 20.6397C63.6771 20.8786 64.3007 20.836 64.3975 21.5057Z" fill="#BCBEC0"/>
<path d="M41.8908 65.4337L40.8521 64.6654L40.8862 64.5953C41.2408 64.7622 41.6012 64.9185 41.944 65.1064C42.0009 65.1376 41.9807 65.3078 41.9972 65.4135L41.8908 65.4337Z" fill="#BCBEC0"/>
<path d="M45.4756 64.6737L44.4421 65.4376L44.332 65.3895C44.3734 65.2795 44.3834 65.114 44.4615 65.0699C44.7771 64.8927 45.1141 64.7533 45.4433 64.5995C45.455 64.6245 45.4653 64.6491 45.4756 64.6737Z" fill="#BCBEC0"/>
<path d="M21.8932 21.4066C22.0257 20.8529 22.6114 20.9123 22.9395 20.6235L22.9993 20.7028L21.9695 21.4917C21.9442 21.4653 21.9185 21.4352 21.8932 21.4066Z" fill="#BCBEC0"/>
<path d="M55.8803 14.6418L57.3116 14.7769C57.305 14.8312 57.298 14.8851 57.2914 14.9391L55.8682 14.7472C55.8711 14.7127 55.8755 14.676 55.8803 14.6418Z" fill="#BCBEC0"/>
<path d="M29.0396 14.7843L30.3142 14.6548L30.3307 14.7741L29.0641 14.9443C29.0561 14.8911 29.0476 14.8379 29.0396 14.7843Z" fill="#BCBEC0"/>
<path d="M17.3912 50.3629C17.0704 50.2282 17.0609 50.116 17.2543 49.0152C17.3064 49.5285 17.3475 49.9354 17.3912 50.3629Z" fill="#BCBEC0"/>
<path d="M68.9476 50.39C68.9902 49.9537 69.0265 49.5806 69.0644 49.1924C69.2794 49.6565 69.2482 50.2084 68.9476 50.39Z" fill="#BCBEC0"/>
<path d="M55.9041 46.278C55.7481 46.4417 55.6105 46.6292 55.4317 46.7638C55.108 47.0111 54.7691 47.2378 54.4169 47.4426C54.1813 47.578 54.1233 47.7479 54.1288 48.0011C54.1443 48.6087 54.134 49.2167 54.134 49.8456H50.3501V48.0569H36.1289V49.8486H32.3391C32.3391 49.2105 32.3263 48.5896 32.3454 47.9699C32.3531 47.7208 32.2749 47.5758 32.0613 47.4492C31.7099 47.2429 31.3718 47.0148 31.0487 46.7664C30.8652 46.6237 30.7254 46.4215 30.5217 46.1973C30.2417 46.1206 29.8244 46.081 29.5062 45.885C29.362 45.7966 29.3781 45.3967 29.3752 45.1376C29.3697 44.6683 29.4552 44.6239 30.4347 44.4507C30.3778 44.3307 30.3356 44.2174 30.274 44.1157C29.7235 43.2076 29.7712 42.2954 30.4245 41.4526C32.1494 39.2283 33.8743 37.0044 35.5993 34.7808C35.6613 34.7008 35.7211 34.619 35.8096 34.5008C35.2737 34.0814 34.7453 33.6687 34.2179 33.2551C33.7272 32.8699 33.7356 32.7568 34.2733 32.4549C34.7265 32.2002 35.1794 31.9448 35.6708 31.6682C35.3215 31.0411 34.9838 30.4316 34.6484 29.8218C34.3995 29.3694 34.4571 29.2586 34.9787 29.1933C35.6833 29.1052 36.3891 29.0241 37.1396 28.9364C37.0152 28.3035 36.8926 27.6973 36.7781 27.0897C36.6783 26.5617 36.7983 26.4479 37.336 26.5499C37.9463 26.6655 38.5559 26.7837 39.1938 26.9062C39.3292 26.1981 39.4591 25.5119 39.5916 24.8287C39.6867 24.3392 39.8529 24.2783 40.2552 24.5898C40.827 25.0338 41.3929 25.4829 42.0029 25.9607C42.3156 25.3886 42.6037 24.8415 42.9145 24.3073C42.9967 24.166 43.1659 23.9565 43.2661 23.9719C43.4129 23.9943 43.5696 24.1686 43.6573 24.3168C43.9675 24.8401 44.2501 25.3809 44.5675 25.9574L46.2642 24.6287C46.7288 24.2647 46.8962 24.329 47.0045 24.9157C47.1241 25.5637 47.2412 26.212 47.3674 26.904C47.9888 26.787 48.5837 26.6787 49.1775 26.5624C49.7857 26.4432 49.8873 26.5367 49.7754 27.1414C49.6653 27.7259 49.553 28.3101 49.4337 28.9346C50.1886 29.0252 50.9039 29.1096 51.6189 29.1973C52.0879 29.2545 52.1492 29.3555 51.9319 29.7726C51.6038 30.4023 51.2585 31.0228 50.9043 31.6744C51.4181 31.9639 51.918 32.2391 52.412 32.5227C52.7827 32.7352 52.7911 32.9073 52.4487 33.1762C51.8405 33.6558 51.2302 34.1332 50.5964 34.6304C51.2731 35.5202 51.9308 36.3916 52.5958 37.2579C53.6892 38.6819 54.792 40.099 55.8813 41.5263C56.4127 42.2235 56.4828 42.9838 56.1617 43.7976C56.0744 44.0178 56.0589 44.2687 56.0109 44.5028C56.8073 44.6713 56.8829 44.7839 56.8289 45.6135C56.804 46.0645 56.6814 46.1404 55.9041 46.278ZM48.1433 33.702C48.423 33.702 48.7867 33.7053 49.15 33.702C49.5794 33.6976 50.0382 33.6114 50.2297 34.1856C50.5336 33.9508 50.7953 33.7508 51.054 33.5479C51.3201 33.3392 51.5833 33.1271 51.8897 32.8831C51.4005 32.6075 50.9663 32.347 50.5171 32.1155C50.2048 31.954 50.1677 31.7669 50.3406 31.4719C50.6683 30.9138 50.9726 30.3417 51.3131 29.7279C50.7303 29.6545 50.1912 29.5855 49.6513 29.5242C48.7367 29.4204 48.7386 29.4233 48.9147 28.5335C49.0043 28.0811 49.0839 27.6269 49.1739 27.1429C48.543 27.2588 47.9811 27.3631 47.4192 27.4658C46.9457 27.5535 46.883 27.5062 46.7953 27.0185C46.6892 26.4355 46.578 25.8535 46.4576 25.211C45.8954 25.6513 45.3771 26.055 44.8582 26.4586C44.4339 26.7888 44.3558 26.7712 44.0875 26.2869L43.2856 24.8353C42.9872 25.3758 42.7211 25.8627 42.451 26.347C42.2256 26.7507 42.1115 26.7738 41.7485 26.4894C41.2204 26.0759 40.6941 25.6602 40.1175 25.2052C40.0148 25.7493 39.919 26.2307 39.8338 26.7143C39.6812 27.5806 39.6848 27.5773 38.8194 27.4052C38.3555 27.3128 37.8883 27.2354 37.3881 27.1455C37.4982 27.6959 37.5973 28.1824 37.6887 28.6689C37.8355 29.4431 37.8234 29.4442 37.0416 29.5158C36.464 29.5686 35.8892 29.6486 35.2583 29.7231L36.1564 31.3453C36.45 31.8718 36.4441 31.8869 35.9116 32.1874C35.5112 32.4138 35.1104 32.6394 34.6733 32.8864L36.1234 34.0161C36.7642 33.3887 37.5598 33.8921 38.1654 33.672C37.9592 33.3865 37.6722 33.1216 37.5521 32.7976C37.1826 31.7959 37.9063 30.8309 39.0088 30.8162C40.0533 30.8022 41.0982 30.8129 42.1427 30.8129C43.8368 30.8129 45.5309 30.8074 47.225 30.8151C48.3022 30.8198 48.9966 31.6073 48.7628 32.6416C48.6773 33.0262 48.3536 33.356 48.1433 33.702ZM54.4103 40.5973C53.7758 39.8381 53.1959 39.1362 52.6014 38.4471C52.5437 38.3807 52.3933 38.3737 52.2857 38.3737C46.1346 38.3752 39.9835 38.3824 33.8321 38.3954C33.6872 38.3954 33.5018 38.5054 33.4049 38.6251C33.0199 39.0991 32.6625 39.5952 32.2962 40.0843C32.1806 40.2388 32.0694 40.3969 31.924 40.598C33.3077 40.598 34.6062 40.6006 35.905 40.598C36.4302 40.598 36.9 40.7532 37.3481 41.0233C37.5266 41.1325 37.7305 41.1934 37.9397 41.2001C41.3162 41.2108 44.6897 41.2053 48.0644 41.2119C48.427 41.2119 48.7562 41.1954 49.063 40.9495C49.2425 40.8053 49.4946 40.722 49.7269 40.6802C50.065 40.6251 50.4072 40.5987 50.7498 40.6013C51.9407 40.5922 53.132 40.5973 54.4103 40.5973ZM34.1782 37.5951H52.165C52.1044 37.4986 52.0776 37.4439 52.0402 37.3973C51.2768 36.4433 50.5186 35.4824 49.7401 34.5397C49.6473 34.4271 49.4421 34.3563 49.288 34.3537C48.0523 34.3387 46.8158 34.3445 45.5812 34.3464C45.4832 34.3464 45.3848 34.3632 45.2509 34.3753V35.4343H41.1312V34.3453C40.1366 34.3453 39.1956 34.3453 38.2542 34.3453C37.7452 34.3453 37.1594 34.2011 36.7495 34.4047C36.3249 34.6146 36.0635 35.1624 35.7424 35.5712C35.2249 36.2298 34.7185 36.895 34.1782 37.5951ZM38.9967 46.5936H47.2177V44.9791H38.9967V46.5936ZM50.3006 44.3458C51.1289 44.3513 51.7803 43.7319 51.7848 42.935C51.7892 42.156 51.1524 41.526 50.3486 41.5139C49.5214 41.5014 48.8549 42.1193 48.8468 42.9082C48.8377 43.7081 49.4766 44.3403 50.2998 44.3458H50.3006ZM35.9307 44.3458C36.7572 44.3517 37.413 43.7268 37.4138 42.9335C37.4138 42.1538 36.7785 41.5263 35.9747 41.5139C35.1482 41.5014 34.4821 42.1204 34.474 42.9082C34.4649 43.7084 35.1046 44.3396 35.93 44.3454L35.9307 44.3458ZM53.956 44.3458C54.7755 44.3458 55.4391 43.7 55.4299 42.9148C55.4207 42.1442 54.7641 41.5175 53.9648 41.5128C53.1478 41.5084 52.4707 42.1464 52.4656 42.9251C52.4604 43.7037 53.1394 44.3473 53.9552 44.3458H53.956ZM32.3061 41.5135C31.4924 41.5135 30.8153 42.1652 30.8241 42.9412C30.8329 43.7077 31.4917 44.3384 32.29 44.3451C33.1084 44.352 33.787 43.7158 33.7907 42.9383C33.7943 42.1608 33.1194 41.5139 32.3054 41.5135H32.3061ZM49.0197 45.7643H56.3878V44.9842H49.019L49.0197 45.7643ZM37.2299 44.9813H29.8732V45.7614H37.2299V44.9813ZM44.6626 31.4598H41.6193V33.152H44.6629L44.6626 31.4598ZM40.925 31.433C40.3957 31.433 39.9113 31.4128 39.4294 31.4403C39.1257 31.4531 38.8257 31.511 38.539 31.612C38.1239 31.7665 37.9837 32.0656 38.066 32.4963C38.1394 32.8827 38.4539 33.057 38.779 33.0929C39.4819 33.1704 40.192 33.1781 40.925 33.2159V31.433ZM45.3551 33.1821C45.6219 33.1821 45.8495 33.1916 46.0756 33.1799C46.5802 33.1539 47.0929 33.1634 47.5862 33.0698C48.0442 32.9836 48.2343 32.6864 48.2446 32.3055C48.256 31.863 47.9726 31.6153 47.6141 31.5647C46.8723 31.4598 46.1185 31.44 45.3551 31.3838V33.1821ZM41.3404 43.3378C41.3404 43.0212 41.3687 42.7005 41.3279 42.389C41.3092 42.2466 41.1551 42.1219 41.0622 41.989C40.9672 42.1193 40.7965 42.2459 40.7906 42.3798C40.762 43.0252 40.7624 43.6732 40.7906 44.3183C40.7969 44.4493 40.9741 44.5725 41.0718 44.6995C41.1606 44.5751 41.3107 44.4581 41.3261 44.3252C41.3639 44.0001 41.3404 43.6677 41.3404 43.3378ZM46.9013 43.3224C46.9013 43.6527 46.8734 43.9851 46.9145 44.3095C46.9322 44.4493 47.0925 44.5707 47.188 44.7006C47.2786 44.5788 47.4449 44.4599 47.4482 44.3337C47.475 43.6754 47.4753 43.0153 47.4482 42.3571C47.4434 42.2308 47.2812 42.1109 47.1913 41.9879C47.0947 42.1156 46.9344 42.2341 46.9142 42.3725C46.8709 42.6847 46.8999 43.0054 46.8999 43.3224H46.9013ZM42.2065 43.365C42.2065 43.0348 42.2333 42.702 42.1937 42.3769C42.1765 42.2385 42.0197 42.1167 41.9265 41.9876C41.8392 42.1219 41.6821 42.2532 41.6762 42.3912C41.6491 43.0245 41.6494 43.6604 41.6762 44.2937C41.6821 44.4328 41.8359 44.5659 41.9217 44.7021C42.0168 44.5608 42.172 44.4287 42.1941 44.2768C42.2363 43.9789 42.2054 43.6695 42.2051 43.365H42.2065ZM46.0289 43.3107C46.0289 43.6409 46.0025 43.9737 46.0411 44.2988C46.0583 44.4412 46.2084 44.5681 46.298 44.7024C46.3894 44.5714 46.5549 44.4456 46.56 44.3098C46.5875 43.6637 46.5875 43.0153 46.56 42.3695C46.5541 42.2393 46.3835 42.116 46.2892 41.9894C46.2029 42.1127 46.0572 42.2294 46.0418 42.3607C46.0033 42.6726 46.0282 42.9937 46.0275 43.3107H46.0289ZM40.4537 43.3393C40.4537 43.0223 40.4801 42.7016 40.4416 42.3893C40.424 42.2477 40.2772 42.1219 40.1891 41.9887C40.0966 42.1189 39.93 42.2455 39.9241 42.3794C39.8962 43.0252 39.8959 43.6736 39.9241 44.3194C39.93 44.45 40.1029 44.5737 40.199 44.7002C40.2834 44.5766 40.4269 44.4592 40.4412 44.3278C40.4754 44.0016 40.4515 43.6692 40.4522 43.3393H40.4537ZM44.8211 43.3489C44.8211 43.0186 44.8446 42.6884 44.8094 42.3611C44.7951 42.2297 44.6512 42.1127 44.5661 41.9894C44.4703 42.1031 44.2956 42.214 44.2908 42.3317C44.264 43.0028 44.2636 43.6758 44.2908 44.3469C44.2956 44.4683 44.4651 44.5836 44.5587 44.7017C44.6464 44.5806 44.7954 44.4661 44.8101 44.3348C44.845 44.0108 44.8204 43.6784 44.8204 43.3489H44.8211ZM45.7133 43.3856C45.7133 43.0432 45.7375 42.6983 45.7012 42.3582C45.6873 42.2264 45.5361 42.1098 45.4476 41.9861C45.3526 42.1138 45.1815 42.2378 45.1757 42.3692C45.147 43.0142 45.1474 43.6622 45.1757 44.3076C45.1815 44.4419 45.347 44.5692 45.4392 44.6995C45.5313 44.5652 45.6829 44.439 45.703 44.2959C45.7416 43.9979 45.7126 43.6897 45.7126 43.3856H45.7133ZM43.9583 43.3489C43.9583 43.0065 43.984 42.6612 43.9447 42.3215C43.9308 42.2011 43.7612 42.0987 43.6614 41.9883C43.5799 42.1013 43.432 42.2121 43.428 42.3281C43.4056 42.9992 43.4037 43.6721 43.428 44.3432C43.4324 44.465 43.596 44.581 43.6849 44.6995C43.7755 44.5784 43.9297 44.4647 43.9447 44.3348C43.9829 44.0123 43.9576 43.6798 43.9576 43.35L43.9583 43.3489ZM42.5236 43.3467C42.5236 43.6637 42.4954 43.9844 42.5361 44.2963C42.5548 44.4394 42.7086 44.5652 42.8011 44.6999C42.8932 44.5689 43.058 44.443 43.065 44.3069C43.0936 43.6615 43.0947 43.0135 43.065 42.3681C43.0591 42.2378 42.8848 42.1145 42.7883 41.9879C42.6998 42.1112 42.5497 42.2279 42.5347 42.36C42.4987 42.6858 42.5236 43.0183 42.5229 43.3478L42.5236 43.3467ZM39.0437 43.3158H39.0411C39.0411 43.6582 39.0169 44.0027 39.0536 44.341C39.0675 44.4683 39.222 44.5806 39.3127 44.6999C39.4048 44.5795 39.5722 44.4621 39.5769 44.3388C39.6026 43.6681 39.6023 42.9955 39.574 42.3248C39.5692 42.2088 39.3905 42.1002 39.291 41.9883C39.2085 42.1013 39.0672 42.2085 39.055 42.3288C39.0213 42.6561 39.0429 42.9878 39.0429 43.3169L39.0437 43.3158Z" fill="#BCBEC0"/>
<path d="M56.288 19.5657C56.2484 19.4002 56.2146 19.256 56.1779 19.1129C56.655 19.1129 57.1054 19.0946 57.5538 19.1261C57.6639 19.1342 57.8016 19.2865 57.861 19.405C58.1003 19.882 58.2985 20.3781 58.5462 20.8492C58.6355 21.0059 58.7766 21.1265 58.9452 21.1905C59.448 21.3637 59.9728 21.4737 60.4723 21.6554C60.6268 21.7115 60.7905 21.899 60.8393 22.059C60.9494 22.4336 60.9935 22.8295 61.0676 23.2357H60.5941C60.582 23.2071 60.5729 23.1774 60.567 23.1469C60.5241 22.2127 60.5303 22.1404 59.5955 22.0414C58.522 21.9276 57.8339 21.4814 57.6467 20.3843C57.6323 20.3356 57.6132 20.2885 57.5898 20.2434C57.25 19.3753 57.25 19.3753 56.288 19.5657Z" fill="#BCBEC0"/>
<path d="M30.4337 19.1884C30.3838 19.3788 30.3497 19.5109 30.3093 19.6654C30.1063 19.6313 29.9177 19.6129 29.736 19.5663C29.4329 19.4881 29.264 19.5913 29.1543 19.887C28.9646 20.4007 28.7267 20.8938 28.5388 21.4068C28.4383 21.6802 28.2739 21.8152 27.9942 21.8629C27.4679 21.9532 26.9482 22.0941 26.419 22.1524C26.0373 22.1942 25.9074 22.3615 25.9342 22.7167C25.9463 22.8796 25.9342 23.0437 25.9342 23.2304H25.4431C25.5349 22.793 25.5991 22.3656 25.7253 21.9568C25.7657 21.8251 25.9536 21.6941 26.1008 21.649C26.5981 21.4963 27.113 21.3991 27.6092 21.2432C27.7798 21.1827 27.9242 21.0649 28.0177 20.91C28.2786 20.4444 28.5073 19.96 28.7334 19.476C28.8324 19.2636 28.9668 19.173 29.2064 19.1825C29.6002 19.2012 29.9944 19.1884 30.4337 19.1884Z" fill="#BCBEC0"/>
<path d="M28.7556 56.5832C28.7556 57.1702 28.2979 57.6388 27.728 57.6384C27.158 57.6381 26.6871 57.1585 26.6853 56.5879C26.6862 56.3112 26.7955 56.0459 26.9897 55.8487C27.1839 55.6515 27.4476 55.5382 27.7243 55.533C28.2895 55.5279 28.7552 56.002 28.7556 56.5832Z" fill="#BCBEC0"/>
<path d="M24.3112 59.562C24.8709 59.5579 25.3601 60.0427 25.366 60.607C25.3719 61.1713 24.8889 61.663 24.3281 61.6689C23.7614 61.6747 23.2847 61.1981 23.2825 60.6239C23.2795 60.0441 23.7427 59.566 24.3112 59.562Z" fill="#BCBEC0"/>
<path d="M61.8257 61.4694C61.2612 61.4609 60.7852 60.9696 60.798 60.4053C60.8039 60.129 60.9189 59.8663 61.1178 59.6744C61.3167 59.4826 61.5834 59.3772 61.8598 59.3812C62.4411 59.3886 62.8874 59.8505 62.8772 60.4387C62.8774 60.5758 62.8502 60.7117 62.7972 60.8382C62.7441 60.9647 62.6664 61.0793 62.5684 61.1753C62.4705 61.2713 62.3543 61.3468 62.2267 61.3973C62.0992 61.4478 61.9628 61.4723 61.8257 61.4694Z" fill="#BCBEC0"/>
</svg>
