<svg width="235" height="40" viewBox="0 0 235 40" fill="none" xmlns="http://www.w3.org/2000/svg">


<style>
  * {
      cursor: pointer;
  }
</style>

<g filter="url(#filter0_d)">
<path d="M154.65 20.5221C155.24 20.5221 155.593 20.4041 155.986 20.1289C155.947 20.8366 155.436 21.3477 155.436 21.3477L154.65 20.5221Z" fill="#BCBEC0"/>
<path d="M64.2415 19.3038C57.795 21.5447 52.7243 27.6778 51.5057 35.3834C51.4664 35.6586 51.663 35.8945 51.9381 35.8945H57.0875C58.8563 35.8945 60.3893 34.6758 60.8217 32.9852L64.2415 19.3038Z" fill="#BCBEC0"/>
<path d="M32.3628 35.2643C32.2449 35.5395 32.4415 35.8934 32.7559 35.8934H43.4084C43.7228 35.8934 43.998 35.6968 44.0766 35.3823C46.7888 26.3006 53.707 19.0668 64.2809 16.9045C64.5953 16.8258 64.8705 16.5899 64.9491 16.2754L65.5387 13.8379C52.0168 14.5063 38.4556 21.229 32.3628 35.2643Z" fill="#BCBEC0"/>
<path d="M67.7008 5.34731L68.2511 3.26364H51.9776H35.7041H22.8505C20.8458 3.26364 19.1162 4.63965 18.6445 6.56606L16.7184 14.3897C16.6005 14.9401 17.1115 15.3725 17.6225 15.1759C31.1051 9.20013 48.322 6.05497 66.8753 6.01566C67.2684 6.01566 67.6221 5.74046 67.7008 5.34731Z" fill="#BCBEC0"/>
<path d="M13.8882 25.6341L12.198 32.4355C11.7656 34.1653 13.1021 35.8558 14.8709 35.8558H22.8897C23.2435 35.8558 23.5973 35.6593 23.7545 35.3054C30.5155 21.5061 44.5484 12.3458 65.6174 11.4022C65.9712 11.4022 66.325 11.127 66.4036 10.7732L66.9539 8.49295C44.5877 8.72884 28.1177 14.1149 14.8709 24.1794C14.3599 24.5333 14.0062 25.0444 13.8882 25.6341Z" fill="#BCBEC0"/>
<path d="M100.129 3.34067H112.158C113.887 3.34067 115.027 3.65518 115.577 4.36285C116.285 5.26708 116.442 6.64309 115.853 9.00196C115.106 11.9899 113.691 13.2479 111.332 13.759L111.293 13.8376C113.612 14.3094 114.438 15.2923 113.612 18.5947C112.905 21.3467 112.079 22.3689 110.978 23.2338C109.996 23.9808 108.62 24.3346 106.969 24.3346H94.8622L100.129 3.34067ZM108.974 15.8034C108.777 15.6068 108.541 15.5282 107.755 15.5282H102.056L100.798 20.5997H106.458C107.205 20.5997 107.519 20.5604 107.794 20.3638C108.109 20.128 108.384 19.8921 108.816 18.1229C109.249 16.3145 109.131 16.0786 108.974 15.8034ZM108.463 12.0685C109.249 12.0685 109.485 12.0292 109.721 11.8719C110.035 11.5967 110.389 11.007 110.743 9.55236C111.057 8.17635 111.018 7.58664 110.821 7.35075C110.664 7.19349 110.428 7.11486 109.603 7.11486H104.06L102.881 12.0685H108.463Z" fill="#BCBEC0"/>
<path d="M129.532 7.27212L125.247 24.3739H120.373L124.618 7.27212H118.25L119.194 3.34067H136.568L135.585 7.27212H129.532Z" fill="#BCBEC0"/>
<path d="M150.719 3.34067C152.802 3.34067 153.706 3.65518 154.257 4.36285C155.161 5.46365 155.554 7.39006 153.942 13.8376C152.331 20.2852 150.955 22.1723 149.5 23.3124C148.557 24.0201 147.535 24.3346 145.491 24.3346H138.966C136.883 24.3346 135.979 24.0201 135.428 23.3124C134.485 22.1723 134.092 20.2459 135.743 13.8376C137.315 7.39006 138.691 5.46365 140.184 4.36285C141.128 3.65518 142.15 3.34067 144.194 3.34067H150.719ZM139.831 20.2066C140.027 20.4032 140.263 20.4818 141.206 20.4818H145.216C146.159 20.5211 146.474 20.4032 146.71 20.2066C147.024 19.9314 147.653 19.1844 148.95 13.877C150.287 8.53018 150.051 7.78321 149.854 7.54732C149.697 7.35075 149.461 7.2328 148.518 7.2328H144.508C143.565 7.2328 143.251 7.31143 142.975 7.54732C142.661 7.78321 142.071 8.53018 140.735 13.877C139.398 19.2237 139.634 19.9314 139.831 20.2066Z" fill="#BCBEC0"/>
<path d="M195.962 3.34067C198.046 3.34067 198.95 3.65518 199.5 4.36285C200.404 5.46365 200.797 7.39006 199.186 13.8376C197.574 20.2852 196.198 22.1723 194.744 23.3124C193.8 24.0201 192.778 24.3346 190.734 24.3346H184.209C182.126 24.3346 181.222 24.0201 180.672 23.3124C179.728 22.1723 179.335 20.2459 180.986 13.8376C182.598 7.39006 183.934 5.46365 185.428 4.36285C186.371 3.65518 187.393 3.34067 189.437 3.34067H195.962ZM185.074 20.2066C185.271 20.4032 185.506 20.4818 186.45 20.4818H190.459C191.403 20.5211 191.717 20.4032 191.953 20.2066C192.267 19.9314 192.896 19.1844 194.194 13.877C195.53 8.53018 195.294 7.78321 195.098 7.54732C194.94 7.35075 194.705 7.2328 193.761 7.2328H189.752C188.808 7.2328 188.494 7.31143 188.219 7.54732C187.904 7.78321 187.315 8.53018 185.978 13.877C184.642 19.2237 184.878 19.9314 185.074 20.2066Z" fill="#BCBEC0"/>
<path d="M217.385 16.3538C216.521 16.9828 215.302 17.2187 213.612 17.2187H207.205L205.396 24.3739H200.522L205.75 3.34067H217.032C218.761 3.34067 219.822 3.53724 220.412 4.16627C221.159 5.03119 221.67 6.4072 220.687 10.2993C219.744 14.1522 218.525 15.5282 217.385 16.3538ZM212.629 13.4052C213.73 13.4052 214.083 13.3266 214.359 13.1693C214.752 12.8548 215.184 12.3437 215.695 10.2993C216.206 8.25498 216.01 7.74389 215.774 7.46869C215.616 7.27212 215.302 7.19349 214.201 7.19349H209.72L208.187 13.4052H212.629Z" fill="#BCBEC0"/>
<path d="M85.2716 3.34067C79.6113 3.34067 78.0783 4.32353 76.506 10.4566C74.973 16.3931 72.929 24.3346 72.929 24.3346H77.9211C77.9211 24.3346 78.8644 20.5997 79.8471 16.7862H87.3943L85.5468 24.3739H90.4996L95.7275 3.34067H85.2716ZM80.7905 13.13C81.3408 10.9284 81.8125 9.1199 81.9305 8.68744C82.3235 7.19349 83.4635 7.11486 84.4855 7.11486H89.9493L88.3377 13.13H80.7905Z" fill="#BCBEC0"/>
<path d="M156.969 27.1276L157.755 24.3756H171.71L171.081 27.1276H175.365L177.055 20.5227H174.815L179.06 3.38162H165.538C163.258 3.38162 162.905 4.32517 162.394 5.81912C161.686 7.86348 161.214 9.51469 160.782 10.9693C159.681 14.5863 158.817 17.928 155.436 20.5227H154.218L152.567 27.1276H156.969ZM164.87 12.3453C165.578 9.94715 165.931 8.92497 166.246 7.90279C166.403 7.43102 166.717 7.1165 167.307 7.1165H173.164L169.862 20.5227H160.979C162.747 18.8715 163.809 15.9623 164.87 12.3453Z" fill="#BCBEC0"/>
<path d="M71.5924 32.2776L70.6097 35.8945H69.7842L70.9634 31.5699H74.6191L73.4791 35.8945H72.6144L73.5971 32.2776H71.5924Z" fill="#BCBEC0"/>
<path d="M74.501 35.2262C74.9334 35.1868 75.1299 34.951 75.2871 34.2433L75.9947 31.5699H79.3751L78.2352 35.8945H77.4097L78.3531 32.2776H76.6236L76.0733 34.3219C75.7981 35.4227 75.2478 35.8945 74.3044 35.9338L74.501 35.2262Z" fill="#BCBEC0"/>
<path d="M80.4366 35.0689L79.9649 35.8945H79.0609L81.6552 31.5699H82.8737L83.1882 35.8945H82.3234L82.2448 35.0689H80.4366ZM82.0876 32.1989L80.7511 34.4399H82.2448L82.0876 32.1989Z" fill="#BCBEC0"/>
<path d="M85.3498 35.8945H84.5243L85.4677 32.2776H84.2491L84.4457 31.5699H87.7868L87.5903 32.2776H86.3325L85.3498 35.8945Z" fill="#BCBEC0"/>
<path d="M91.1674 35.8945H90.3419L90.8136 34.0467H88.8089L88.3372 35.8945H87.5117L88.6516 31.5699H89.4771L89.0054 33.3391H91.0101L91.4818 31.5699H92.3073L91.1674 35.8945Z" fill="#BCBEC0"/>
<path d="M94.3904 31.5699L94.0366 32.9852H95.0193C95.8448 32.9852 95.8448 32.9852 96.0413 33.1032C96.3165 33.2211 96.4344 33.457 96.4344 33.8108C96.4344 34.1254 96.2772 34.7151 96.12 35.0689C95.8841 35.58 95.4517 35.8945 94.9014 35.9338C94.7442 35.9338 94.6656 35.9338 94.2332 35.9338H92.4643L93.6042 31.6092H94.3904V31.5699ZM93.4077 35.1868H94.4297C94.98 35.1868 95.0979 35.1475 95.2552 34.833C95.3338 34.6758 95.4517 34.204 95.491 34.0074C95.491 33.7322 95.3731 33.6536 94.7835 33.6536H93.8401L93.4077 35.1868ZM97.1027 35.8945H96.2772L97.4171 31.5699H98.2426L97.1027 35.8945Z" fill="#BCBEC0"/>
<path d="M99.8152 33.3784H101.859L101.702 33.9681H99.6973L99.3435 35.1868H101.505L101.309 35.8945H98.3215L99.5008 31.5699H102.449L102.252 32.2383H100.13L99.8152 33.3784Z" fill="#BCBEC0"/>
<path d="M109.642 31.5699L108.699 35.1869H109.289L108.856 36.7594H108.031L108.267 35.8945H105.279L105.043 36.7594H104.218L104.65 35.1869H104.808C105.279 35.1475 105.436 34.9116 105.633 34.0467L106.301 31.5699H109.642ZM107.874 35.1869L108.66 32.2776H106.93L106.458 34.0467C106.301 34.6758 106.065 34.9903 105.712 35.1869H107.874Z" fill="#BCBEC0"/>
<path d="M114.202 31.8042C114.359 31.9614 114.438 32.2366 114.438 32.5511C114.438 32.8263 114.359 33.1015 114.123 33.9665C113.887 34.8314 113.73 35.1459 113.455 35.4211C113.062 35.7749 112.63 35.9322 111.686 35.9322C110.979 35.9322 110.743 35.8929 110.468 35.7749C110.193 35.6177 110.035 35.3425 110.075 34.9493C110.075 34.6741 110.153 34.3596 110.389 33.4947C110.625 32.6298 110.782 32.2759 111.097 32.0007C111.49 31.6469 111.883 31.529 112.865 31.529C113.691 31.529 113.966 31.5683 114.202 31.8042ZM111.608 32.5511C111.45 32.7477 111.411 32.8657 111.215 33.6519C111.018 34.3989 110.979 34.5562 110.979 34.7528C110.979 34.9886 111.018 35.1066 111.175 35.1852C111.293 35.2638 111.45 35.2638 111.961 35.2638C112.748 35.2638 112.944 35.1459 113.18 34.4382C113.219 34.3203 113.259 34.281 113.416 33.534C113.534 33.0229 113.573 32.9443 113.573 32.787C113.573 32.5511 113.534 32.4332 113.376 32.3546C113.259 32.2759 113.101 32.2759 112.63 32.2759C111.961 32.2366 111.804 32.2759 111.608 32.5511Z" fill="#BCBEC0"/>
<path d="M115.852 31.5699H117.621C118.329 31.5699 118.407 31.5699 118.604 31.6485C118.879 31.7665 119.036 32.0417 119.036 32.3955C119.036 32.71 118.879 33.2211 118.722 33.6143C118.525 34.1254 118.093 34.4792 117.543 34.4792C117.464 34.4792 117.346 34.4792 116.874 34.5185H115.892L115.538 35.8945H114.713L115.852 31.5699ZM117.032 33.7715C117.582 33.7715 117.779 33.7322 117.896 33.4963C117.975 33.3391 118.132 32.8673 118.132 32.6314C118.132 32.3169 118.054 32.2383 117.503 32.2383H116.481L116.088 33.7715H117.032Z" fill="#BCBEC0"/>
<path d="M123.439 31.8042C123.597 31.9614 123.675 32.2366 123.675 32.5511C123.675 32.8263 123.597 33.1015 123.361 33.9665C123.125 34.8314 122.968 35.1459 122.692 35.4211C122.299 35.7749 121.867 35.9322 120.924 35.9322C120.216 35.9322 119.98 35.8929 119.705 35.7749C119.43 35.6177 119.273 35.3425 119.312 34.9493C119.312 34.6741 119.391 34.3596 119.626 33.4947C119.862 32.6298 120.02 32.2759 120.334 32.0007C120.727 31.6469 121.12 31.529 122.103 31.529C122.928 31.529 123.203 31.5683 123.439 31.8042ZM120.845 32.5511C120.688 32.7477 120.648 32.8657 120.452 33.6519C120.255 34.3989 120.216 34.5562 120.216 34.7528C120.216 34.9886 120.255 35.1066 120.413 35.1852C120.531 35.2638 120.688 35.2638 121.199 35.2638C121.985 35.2638 122.181 35.1459 122.417 34.4382C122.457 34.3203 122.496 34.281 122.653 33.534C122.81 33.0229 122.81 32.9443 122.81 32.787C122.81 32.5511 122.771 32.4332 122.614 32.3546C122.496 32.2759 122.339 32.2759 121.867 32.2759C121.199 32.2366 121.042 32.2759 120.845 32.5511Z" fill="#BCBEC0"/>
<path d="M123.95 35.8945L125.09 31.5699H127.92L127.724 32.2776H125.719L124.776 35.8945H123.95Z" fill="#BCBEC0"/>
<path d="M130.475 35.8945L131.143 33.4177C131.222 33.1818 131.261 32.9066 131.301 32.8673L131.379 32.5921L131.458 32.3169H131.419L128.903 35.9338H127.645L128.785 31.6092H129.61L128.942 34.086C128.864 34.3612 128.824 34.5971 128.785 34.6364L128.706 34.9116L128.628 35.1868H128.667L131.222 31.5699H132.48L131.34 35.8945H130.475Z" fill="#BCBEC0"/>
</g>
<defs>
<filter id="filter0_d" x="-3.94824" y="0" width="242" height="47" filterUnits="userSpaceOnUse" color-interpolation-filters="sRGB">
<feFlood flood-opacity="0" result="BackgroundImageFix"/>
<feColorMatrix in="SourceAlpha" type="matrix" values="0 0 0 0 0 0 0 0 0 0 0 0 0 0 0 0 0 0 127 0" result="hardAlpha"/>
<feOffset dy="4"/>
<feGaussianBlur stdDeviation="2"/>
<feComposite in2="hardAlpha" operator="out"/>
<feColorMatrix type="matrix" values="0 0 0 0 0 0 0 0 0 0 0 0 0 0 0 0 0 0 0.25 0"/>
<feBlend mode="normal" in2="BackgroundImageFix" result="effect1_dropShadow"/>
<feBlend mode="normal" in="SourceGraphic" in2="effect1_dropShadow" result="shape"/>
</filter>
</defs>
</svg>
