<svg width="99" height="97" viewBox="0 0 99 97" fill="none" xmlns="http://www.w3.org/2000/svg">
<path d="M96.467 32.1383L89.1274 46.8439H90.5702L92.8005 42.3436H95.3022L94.3161 46.8439H95.7126L98.8165 32.1383H96.467ZM95.5934 40.9935H93.4161L97.0958 33.4355H97.2877L95.5934 40.9935Z" fill="#231F20"/>
<path d="M83.8465 31.9326C83.3332 31.8817 82.815 31.9482 82.3311 32.127C81.8473 32.3059 81.4104 32.5925 81.0537 32.965C80.6554 33.4804 80.3875 34.0843 80.2727 34.7255L78.1549 42.7004C77.9106 43.4952 77.7378 44.3103 77.6387 45.1359C77.6387 46.4595 78.6182 47.0022 80.2264 47.0022C81.8346 47.0022 83.0193 46.539 83.5884 44.5138L85.971 36.0226C86.1708 35.3758 86.3061 34.7107 86.3747 34.0372C86.4343 33.4217 86.3747 31.9194 83.8465 31.9194V31.9326ZM84.9319 34.4012C84.8326 34.924 84.7797 35.1755 84.5679 35.9565L82.4501 43.7262C82.0331 45.3345 81.5699 45.7117 80.4249 45.7117C79.4454 45.7117 79.1013 45.4006 79.1013 44.8249C79.1692 44.1896 79.3068 43.5637 79.5116 42.9585L81.3779 35.9697C81.514 35.3269 81.7204 34.701 81.9935 34.1034C82.1652 33.7974 82.4247 33.5499 82.7385 33.393C83.0524 33.2361 83.4061 33.1769 83.7539 33.2232C84.8459 33.2232 85.0775 33.7923 84.9452 34.4144" fill="#231F20"/>
<path d="M76.03 32.1375H73.6077L69.564 46.8497H70.8876L72.4098 41.3037H74.1239C75.9307 41.3037 76.6057 40.6419 77.069 39.08L77.8433 36.4856C78.1192 35.7172 78.2949 34.9164 78.3662 34.1031C78.3662 32.8589 77.5918 32.1176 76.03 32.1176V32.1375ZM76.6521 35.7444L75.8248 38.6432C75.4674 39.8344 74.9512 40.0396 73.9651 40.0396H72.8003L74.6335 33.3618H75.6924C76.6785 33.3618 77.0161 33.7722 77.0161 34.3413C76.9778 34.8218 76.8708 35.2943 76.6984 35.7444" fill="#231F20"/>
<path d="M94.3424 32.1383L93.6739 33.4818H90.6097L86.8969 46.8439H85.5005L89.5905 32.1383H94.3424Z" fill="#231F20"/>
<path d="M62.3237 32.1383H60.0471L51.9332 45.6659H51.0463L49.9609 48.975L51.3574 48.5117L51.8736 46.8572H58.9021L59.5639 45.6659H58.1212L62.3237 32.1383ZM60.5832 33.4619H60.7089L56.6983 45.6659H53.4289L60.5832 33.4619Z" fill="#231F20"/>
<path d="M67.7039 31.9329C67.1906 31.8815 66.6722 31.9477 66.1883 32.1266C65.7044 32.3055 65.2675 32.5923 64.9111 32.9653C64.5337 33.4921 64.27 34.0916 64.1367 34.7258L62.0123 42.7007C61.768 43.4955 61.5952 44.3106 61.4961 45.1362C61.4961 46.4598 62.4756 47.0025 64.0838 47.0025C65.692 47.0025 66.8767 46.5392 67.4458 44.5141L69.8284 36.0229C70.0205 35.3738 70.1578 34.7096 70.2387 34.0375C70.2917 33.422 70.2387 31.9197 67.7039 31.9197V31.9329ZM68.7893 34.4015C68.6834 34.9243 68.6371 35.1758 68.4253 35.9568L66.3075 43.7265C65.8972 45.3347 65.4273 45.712 64.289 45.712C63.3029 45.712 62.9653 45.4009 62.9653 44.8251C63.0331 44.1892 63.173 43.5631 63.3823 42.9588L65.2486 35.97C65.3839 35.3261 65.5927 34.6999 65.8707 34.1037C66.0399 33.797 66.2981 33.5487 66.6111 33.3916C66.9242 33.2345 67.2775 33.1758 67.6245 33.2234C68.7099 33.2234 68.9482 33.7926 68.8158 34.4147" fill="#231F20"/>
<path d="M62.1649 50.0596C61.6517 50.0107 61.1341 50.0781 60.6505 50.2568C60.167 50.4356 59.73 50.7211 59.372 51.0921C58.9761 51.6081 58.7105 52.212 58.5977 52.8525L56.4799 60.8341C56.2304 61.6257 56.0554 62.4388 55.957 63.2629C55.957 64.5866 56.9431 65.1293 58.5447 65.1293C60.1464 65.1293 61.3376 64.666 61.9134 62.6408L64.2894 54.1497C64.4836 53.5007 64.6231 52.8366 64.7063 52.1642C64.7526 51.5421 64.7063 50.0398 62.1649 50.0398V50.0596ZM63.2569 52.5216C63.151 53.0445 63.0981 53.3026 62.8929 54.0769L60.7751 61.8467C60.3581 63.4549 59.8949 63.8321 58.7565 63.8321C57.7704 63.8321 57.4329 63.5211 57.4329 62.9453C57.5009 62.3116 57.6407 61.6876 57.8498 61.0856L59.7096 54.0901C59.8487 53.4473 60.0573 52.8215 60.3317 52.2238C60.5036 51.9184 60.7635 51.6718 61.0774 51.516C61.3914 51.3602 61.7449 51.3024 62.0921 51.3502C63.1775 51.3502 63.4157 51.9127 63.2834 52.5349" fill="#231F20"/>
<path d="M78.009 50.2646H75.375L74.594 51.5089H76.328L73.0057 63.7856H71.6489L71.3379 64.9769H75.375L75.9905 63.7856H74.3492L78.009 50.2646Z" fill="#231F20"/>
<path d="M47.9357 63.5343L47.5254 64.9903H53.6075L54.0708 63.7461H49.5175L53.6075 59.0339C54.5714 58.0157 55.295 56.7946 55.7253 55.4601C56.0612 54.4169 56.2701 53.3369 56.3475 52.2437C56.3475 51.2112 55.8312 50.0729 53.7002 50.0729C53.2025 50.0269 52.7009 50.0967 52.2347 50.277C51.7685 50.4572 51.3504 50.743 51.0132 51.112C50.4343 51.911 50.1091 52.8657 50.08 53.8519H51.5294C51.5563 53.1756 51.7495 52.5164 52.0919 51.9326C52.2656 51.7354 52.4828 51.5814 52.7264 51.4826C52.9699 51.3838 53.233 51.343 53.495 51.3635C54.5804 51.3635 54.8186 51.9856 54.8186 52.6077C54.7601 53.5085 54.5866 54.3981 54.3024 55.255C53.938 56.2115 53.3944 57.0898 52.7008 57.8427L47.9357 63.5343Z" fill="#231F20"/>
<path d="M63.7929 63.5343L63.376 64.9903H69.4912L69.9545 63.7461H65.4011L69.4912 59.0339C70.4572 58.0173 71.1812 56.7957 71.609 55.4601C71.9415 54.416 72.1503 53.3365 72.2311 52.2437C72.2311 51.2112 71.7083 50.0729 69.5838 50.0729C69.0861 50.0269 68.5845 50.0967 68.1183 50.277C67.6522 50.4572 67.2341 50.743 66.8968 51.112C66.3179 51.911 65.9928 52.8657 65.9637 53.8519H67.4131C67.4381 53.1744 67.6339 52.5142 67.9822 51.9326C68.1543 51.7352 68.3702 51.5808 68.6127 51.4819C68.8553 51.3831 69.1176 51.3425 69.3787 51.3635C70.464 51.3635 70.7023 51.9856 70.7023 52.6077C70.6438 53.5085 70.4703 54.3981 70.1861 55.255C69.8217 56.2115 69.2781 57.0898 68.5845 57.8427L63.7929 63.5343Z" fill="#231F20"/>
<path d="M30.8603 45.8914L18.6669 45.9357L0 0H3.85754L30.8603 45.8914Z" fill="url(#paint0_linear)"/>
<path d="M43.6741 45.8919L10.3308 96.5276H6.2959L30.86 45.8919H43.6741Z" fill="url(#paint1_linear)"/>
<path d="M43.6744 45.8915H30.8603L14.0557 17.2925H23.4556L43.6744 45.8915Z" fill="url(#paint2_linear)"/>
<path d="M30.8602 45.8919L18.6669 45.9362L6.87256 78.1267H15.2527L30.8602 45.8919Z" fill="url(#paint3_linear)"/>
<defs>
<linearGradient id="paint0_linear" x1="0" y1="22.9636" x2="30.8822" y2="22.9636" gradientUnits="userSpaceOnUse">
<stop stop-color="#FEA2BB"/>
<stop offset="0.5025" stop-color="#B44EC0"/>
<stop offset="1" stop-color="#1B081B"/>
</linearGradient>
<linearGradient id="paint1_linear" x1="6.30091" y1="71.2264" x2="43.6555" y2="71.2264" gradientUnits="userSpaceOnUse">
<stop stop-color="#48F1FF"/>
<stop offset="1" stop-color="#2B3990"/>
</linearGradient>
<linearGradient id="paint2_linear" x1="16.9369" y1="19.3964" x2="41.5357" y2="48.7316" gradientUnits="userSpaceOnUse">
<stop stop-color="#CBFEFF"/>
<stop offset="1" stop-color="#3F81F3"/>
</linearGradient>
<linearGradient id="paint3_linear" x1="6.86263" y1="77.7543" x2="28.1622" y2="44.5797" gradientUnits="userSpaceOnUse">
<stop stop-color="#F695D8"/>
<stop offset="1" stop-color="#B44EC0"/>
</linearGradient>
</defs>
</svg>
