<svg width="235" height="40" viewBox="0 0 235 40" fill="none" xmlns="http://www.w3.org/2000/svg">

<style>
  * {
      cursor: pointer;
  }
</style>

<path d="M155.259 21.0481C155.851 21.0481 156.206 20.9272 156.601 20.6449C156.561 21.3707 156.048 21.8949 156.048 21.8949L155.259 21.0481Z" fill="#322B24"/>
<path d="M64.4642 19.7988C57.9901 22.0972 52.8977 28.3875 51.674 36.2907C51.6345 36.573 51.8319 36.8149 52.1082 36.8149H57.2796C59.056 36.8149 60.5955 35.5649 61.0298 33.831L64.4642 19.7988Z" fill="#FF5100"/>
<path d="M32.4493 36.1692C32.3309 36.4515 32.5282 36.8144 32.844 36.8144H43.542C43.8578 36.8144 44.1342 36.6128 44.2131 36.2902C46.937 26.9757 53.8847 19.5563 64.5037 17.3386C64.8195 17.2579 65.0959 17.016 65.1748 16.6934L65.767 14.1934C52.1872 14.8789 38.5681 21.7741 32.4493 36.1692Z" fill="#FF5100"/>
<path d="M67.938 5.48396L68.4907 3.34686H52.1477H35.8046H22.896C20.8828 3.34686 19.1458 4.75815 18.6721 6.73396L16.7378 14.7582C16.6194 15.3227 17.1326 15.7662 17.6457 15.5646C31.186 9.43557 48.4764 6.20977 67.109 6.16944C67.5038 6.16944 67.8591 5.88719 67.938 5.48396Z" fill="#FF5100"/>
<path d="M13.8956 26.2905L12.1981 33.2664C11.7639 35.0405 13.106 36.7744 14.8825 36.7744H22.9355C23.2908 36.7744 23.6461 36.5728 23.804 36.2099C30.5939 22.0567 44.6868 12.6615 65.8458 11.6938C66.2011 11.6938 66.5564 11.4115 66.6353 11.0486L67.188 8.7099C44.7262 8.95184 28.1858 14.476 14.8825 24.7986C14.3693 25.1615 14.014 25.6857 13.8956 26.2905Z" fill="#FF5100"/>
<path d="M100.505 3.42737H112.585C114.322 3.42737 115.467 3.74995 116.019 4.47576C116.73 5.40317 116.888 6.81446 116.296 9.23382C115.546 12.2983 114.125 13.5887 111.756 14.1129L111.717 14.1935C114.046 14.6774 114.875 15.6854 114.046 19.0725C113.335 21.8951 112.506 22.9435 111.401 23.8306C110.414 24.5967 109.032 24.9596 107.374 24.9596H95.2157L100.505 3.42737ZM109.388 16.2096C109.19 16.008 108.953 15.9274 108.164 15.9274H102.44L101.177 21.129H106.861C107.611 21.129 107.927 21.0887 108.203 20.887C108.519 20.6451 108.795 20.4032 109.23 18.5887C109.664 16.7338 109.545 16.4919 109.388 16.2096ZM108.874 12.379C109.664 12.379 109.901 12.3387 110.138 12.1774C110.453 11.8951 110.809 11.2903 111.164 9.79834C111.48 8.38705 111.44 7.78221 111.243 7.54027C111.085 7.37898 110.848 7.29834 110.019 7.29834H104.453L103.269 12.379H108.874Z" fill="#322B24"/>
<path d="M130.033 7.45963L125.731 24.9999H120.836L125.099 7.45963H118.704L119.651 3.42737H137.1L136.113 7.45963H130.033Z" fill="#322B24"/>
<path d="M151.311 3.42737C153.403 3.42737 154.311 3.74995 154.864 4.47576C155.772 5.60479 156.167 7.58059 154.548 14.1935C152.93 20.8064 151.548 22.7419 150.087 23.9112C149.14 24.637 148.114 24.9596 146.061 24.9596H139.508C137.416 24.9596 136.508 24.637 135.955 23.9112C135.008 22.7419 134.613 20.7661 136.271 14.1935C137.85 7.58059 139.232 5.60479 140.732 4.47576C141.679 3.74995 142.705 3.42737 144.758 3.42737H151.311ZM140.376 20.7258C140.574 20.9274 140.811 21.008 141.758 21.008H145.785C146.732 21.0483 147.048 20.9274 147.285 20.7258C147.6 20.4435 148.232 19.6774 149.535 14.2338C150.877 8.74995 150.64 7.98382 150.443 7.74188C150.285 7.54027 150.048 7.4193 149.101 7.4193H145.074C144.127 7.4193 143.811 7.49995 143.534 7.74188C143.219 7.98382 142.627 8.74995 141.284 14.2338C139.942 19.7177 140.179 20.4435 140.376 20.7258Z" fill="#322B24"/>
<path d="M196.748 3.42737C198.84 3.42737 199.748 3.74995 200.301 4.47576C201.209 5.60479 201.604 7.58059 199.985 14.1935C198.367 20.8064 196.985 22.7419 195.524 23.9112C194.577 24.637 193.55 24.9596 191.498 24.9596H184.945C182.852 24.9596 181.945 24.637 181.392 23.9112C180.444 22.7419 180.05 20.7661 181.708 14.1935C183.326 7.58059 184.668 5.60479 186.168 4.47576C187.116 3.74995 188.142 3.42737 190.195 3.42737H196.748ZM185.813 20.7258C186.011 20.9274 186.247 21.008 187.195 21.008H191.221C192.169 21.0483 192.485 20.9274 192.721 20.7258C193.037 20.4435 193.669 19.6774 194.972 14.2338C196.314 8.74995 196.077 7.98382 195.88 7.74188C195.722 7.54027 195.485 7.4193 194.537 7.4193H190.511C189.563 7.4193 189.248 7.49995 188.971 7.74188C188.655 7.98382 188.063 8.74995 186.721 14.2338C185.379 19.7177 185.616 20.4435 185.813 20.7258Z" fill="#322B24"/>
<path d="M218.262 16.7741C217.394 17.4193 216.17 17.6612 214.473 17.6612H208.038L206.222 24.9999H201.327L206.577 3.42737H217.907C219.644 3.42737 220.71 3.62898 221.302 4.27414C222.052 5.16124 222.565 6.57253 221.578 10.5645C220.631 14.5161 219.407 15.9274 218.262 16.7741ZM213.486 13.7499C214.591 13.7499 214.946 13.6693 215.223 13.508C215.617 13.1854 216.052 12.6612 216.565 10.5645C217.078 8.46769 216.881 7.9435 216.644 7.66124C216.486 7.45963 216.17 7.37898 215.065 7.37898H210.564L209.025 13.7499H213.486Z" fill="#322B24"/>
<path d="M85.5838 3.42737C79.8993 3.42737 78.3597 4.43543 76.7807 10.7258C75.2411 16.8145 73.1884 24.9596 73.1884 24.9596H78.2018C78.2018 24.9596 79.1492 21.129 80.1361 17.2177H87.7155L85.8601 24.9999H90.8341L96.0844 3.42737H85.5838ZM81.0835 13.4677C81.6362 11.2096 82.1099 9.35479 82.2283 8.91124C82.6231 7.37898 83.7679 7.29834 84.7943 7.29834H90.2814L88.6629 13.4677H81.0835Z" fill="#322B24"/>
<path d="M157.588 27.823L158.377 25.0005H172.391L171.76 27.823H176.062L177.76 21.0488H175.51L179.773 3.4682H166.194C163.904 3.4682 163.549 4.43594 163.035 5.9682C162.325 8.06497 161.851 9.75852 161.417 11.2505C160.312 14.9601 159.443 18.3876 156.048 21.0488H154.824L153.167 27.823H157.588ZM165.522 12.6617C166.233 10.2021 166.588 9.15368 166.904 8.1053C167.062 7.62143 167.378 7.29885 167.97 7.29885H173.852L170.536 21.0488H161.614C163.391 19.3553 164.457 16.3714 165.522 12.6617Z" fill="#322B24"/>
<path d="M71.8462 33.105L70.8593 36.8147H70.0303L71.2146 32.3792H74.8858L73.741 36.8147H72.8725L73.8594 33.105H71.8462Z" fill="#322B24"/>
<path d="M74.7674 36.1292C75.2017 36.0889 75.3991 35.8469 75.557 35.1211L76.2675 32.3792H79.6625L78.5177 36.8147H77.6887L78.6361 33.105H76.8991L76.3465 35.2018C76.0701 36.3308 75.5175 36.8147 74.5701 36.855L74.7674 36.1292Z" fill="#322B24"/>
<path d="M80.7281 35.9679L80.2544 36.8147H79.3464L81.9519 32.3792H83.1756L83.4914 36.8147H82.6229L82.544 35.9679H80.7281ZM82.3861 33.0244L81.0439 35.3228H82.544L82.3861 33.0244Z" fill="#322B24"/>
<path d="M85.6626 36.8147H84.8336L85.781 33.105H84.5573L84.7546 32.3792H88.1101L87.9127 33.105H86.6495L85.6626 36.8147Z" fill="#322B24"/>
<path d="M91.5051 36.8147H90.6761L91.1498 34.9195H89.1366L88.6629 36.8147H87.8339L88.9787 32.3792H89.8077L89.3339 34.1937H91.3472L91.8209 32.3792H92.6499L91.5051 36.8147Z" fill="#322B24"/>
<path d="M94.7422 32.3792L94.3869 33.8308H95.3738C96.2028 33.8308 96.2028 33.8308 96.4002 33.9518C96.6765 34.0728 96.7949 34.3147 96.7949 34.6776C96.7949 35.0002 96.637 35.605 96.4791 35.9679C96.2423 36.4921 95.808 36.8147 95.2554 36.855C95.0975 36.855 95.0185 36.855 94.5843 36.855H92.8079L93.9527 32.4195H94.7422V32.3792ZM93.7553 36.0889H94.7817C95.3343 36.0889 95.4528 36.0486 95.6107 35.726C95.6896 35.5647 95.808 35.0808 95.8475 34.8792C95.8475 34.597 95.7291 34.5163 95.1369 34.5163H94.1895L93.7553 36.0889ZM97.466 36.8147H96.637L97.7818 32.3792H98.6108L97.466 36.8147Z" fill="#322B24"/>
<path d="M100.19 34.234H102.243L102.085 34.8389H100.071L99.7162 36.0889H101.887L101.69 36.8147H98.6898L99.8741 32.3792H102.835L102.637 33.0647H100.506L100.19 34.234Z" fill="#322B24"/>
<path d="M110.059 32.3792L109.111 36.0889H109.703L109.269 37.7018H108.44L108.677 36.8147H105.677L105.44 37.7018H104.611L105.045 36.0889H105.203C105.677 36.0486 105.835 35.8066 106.032 34.9195L106.703 32.3792H110.059ZM108.282 36.0889L109.072 33.105H107.335L106.861 34.9195C106.703 35.5647 106.466 35.8873 106.111 36.0889H108.282Z" fill="#322B24"/>
<path d="M114.638 32.6206C114.796 32.7819 114.875 33.0642 114.875 33.3868C114.875 33.669 114.796 33.9513 114.559 34.8384C114.322 35.7255 114.164 36.0481 113.888 36.3303C113.493 36.6932 113.059 36.8545 112.112 36.8545C111.401 36.8545 111.164 36.8142 110.888 36.6932C110.611 36.5319 110.454 36.2497 110.493 35.8464C110.493 35.5642 110.572 35.2416 110.809 34.3545C111.046 33.4674 111.204 33.1045 111.519 32.8223C111.914 32.4593 112.309 32.3384 113.296 32.3384C114.125 32.3384 114.401 32.3787 114.638 32.6206ZM112.033 33.3868C111.875 33.5884 111.835 33.7093 111.638 34.5158C111.44 35.2819 111.401 35.4432 111.401 35.6448C111.401 35.8868 111.44 36.0077 111.598 36.0884C111.717 36.169 111.875 36.169 112.388 36.169C113.177 36.169 113.375 36.0481 113.612 35.3223C113.651 35.2013 113.691 35.161 113.849 34.3948C113.967 33.8706 114.006 33.79 114.006 33.6287C114.006 33.3868 113.967 33.2658 113.809 33.1852C113.691 33.1045 113.533 33.1045 113.059 33.1045C112.388 33.0642 112.23 33.1045 112.033 33.3868Z" fill="#322B24"/>
<path d="M116.296 32.3792H118.072C118.783 32.3792 118.862 32.3792 119.059 32.4599C119.336 32.5808 119.493 32.8631 119.493 33.226C119.493 33.5486 119.336 34.0728 119.178 34.476C118.98 35.0002 118.546 35.3631 117.993 35.3631C117.914 35.3631 117.796 35.3631 117.322 35.4034H116.335L115.98 36.8147H115.151L116.296 32.3792ZM117.48 34.6373C118.033 34.6373 118.23 34.597 118.349 34.355C118.428 34.1937 118.586 33.7099 118.586 33.4679C118.586 33.1453 118.507 33.0647 117.954 33.0647H116.928L116.533 34.6373H117.48Z" fill="#322B24"/>
<path d="M123.915 32.6206C124.073 32.7819 124.152 33.0642 124.152 33.3868C124.152 33.669 124.073 33.9513 123.836 34.8384C123.599 35.7255 123.441 36.0481 123.165 36.3303C122.77 36.6932 122.336 36.8545 121.388 36.8545C120.678 36.8545 120.441 36.8142 120.165 36.6932C119.888 36.5319 119.73 36.2497 119.77 35.8464C119.77 35.5642 119.849 35.2416 120.086 34.3545C120.323 33.4674 120.48 33.1045 120.796 32.8223C121.191 32.4593 121.586 32.3384 122.573 32.3384C123.402 32.3384 123.678 32.3787 123.915 32.6206ZM121.309 33.3868C121.152 33.5884 121.112 33.7093 120.915 34.5158C120.717 35.2819 120.678 35.4432 120.678 35.6448C120.678 35.8868 120.717 36.0077 120.875 36.0884C120.994 36.169 121.152 36.169 121.665 36.169C122.454 36.169 122.652 36.0481 122.888 35.3223C122.928 35.2013 122.967 35.161 123.125 34.3948C123.283 33.8706 123.283 33.79 123.283 33.6287C123.283 33.3868 123.244 33.2658 123.086 33.1852C122.967 33.1045 122.81 33.1045 122.336 33.1045C121.665 33.0642 121.507 33.1045 121.309 33.3868Z" fill="#322B24"/>
<path d="M124.428 36.8147L125.573 32.3792H128.415L128.218 33.105H126.204L125.257 36.8147H124.428Z" fill="#322B24"/>
<path d="M130.981 36.8147L131.652 34.2744C131.731 34.0324 131.77 33.7502 131.81 33.7099L131.889 33.4276L131.968 33.1453H131.928L129.402 36.855H128.139L129.283 32.4195H130.112L129.441 34.9599C129.362 35.2421 129.323 35.484 129.283 35.5244L129.205 35.8066L129.126 36.0889H129.165L131.731 32.3792H132.994L131.849 36.8147H130.981Z" fill="#322B24"/>
</svg>
